<svg xmlns="http://www.w3.org/2000/svg" viewBox="0 0 500 500"><ellipse cx="249.05" cy="342.73" rx="236.48" ry="140.31" style="fill:#ebebeb"/><path d="M202.51 341.47 236 322.12c3.45-2 5.18-4.6 5.18-7.21v-4.66l-34.72-19.58a7.35 7.35 0 0 1-3.33-5.77v-41.45l-58.46 33.78v41.45a7.35 7.35 0 0 0 3.33 5.77l29.54 17c6.88 4.01 18.07 4.01 24.97.02Z" style="fill:#5eead4"/><path d="M202.51 341.47 236 322.12c3.45-2 5.18-4.6 5.18-7.21v-4.66l-34.72-19.58a7.35 7.35 0 0 1-3.33-5.77v-41.45l-58.46 33.78v41.45a7.35 7.35 0 0 0 3.33 5.77l29.54 17c6.88 4.01 18.07 4.01 24.97.02Z" style="opacity:.4"/><path d="M158.68 326v4.63L148 324.45a7.38 7.38 0 0 1-3.33-5.77v-41.45l11.14-6.42c.23 2.82.48 5.75.71 8.59l-7.81 4.52v32.43a7.31 7.31 0 0 0 3.33 5.77Z" style="opacity:.2"/><path d="M148.68 316.36a7.36 7.36 0 0 0 3.33 5.77l25.5 14.69c6.9 4 18.09 4 25 0L236 317.47c6.9-4 6.9-10.44 0-14.42l-25.52-14.7a7.36 7.36 0 0 1-3.33-5.77v-32.43l-58.46 33.78Z" style="fill:#5eead4"/><path d="M148.68 316.36a7.36 7.36 0 0 0 3.33 5.77l25.5 14.69c6.9 4 18.09 4 25 0L236 317.47c6.9-4 6.9-10.44 0-14.42l-25.52-14.7a7.36 7.36 0 0 1-3.33-5.77v-32.43l-58.46 33.78Z" style="opacity:.30000000000000004"/><path d="m217.26 292.27-6.79-3.92a7.36 7.36 0 0 1-3.33-5.77v-32.43l-58.46 33.78v32.43a7.36 7.36 0 0 0 3.33 5.77l6.67 3.85Z" style="opacity:.1"/><path d="M241.16 310.26v4.65c0 2.62-1.73 5.21-5.18 7.22l-33.47 19.34a25.15 25.15 0 0 1-11.93 3v-4.64a25.15 25.15 0 0 0 11.93-3L236 317.47c3.43-1.98 5.16-4.6 5.16-7.21Z" style="fill:#5eead4"/><path d="M241.16 310.26v4.65c0 2.62-1.73 5.21-5.18 7.22l-33.47 19.34a25.15 25.15 0 0 1-11.93 3v-4.64a25.15 25.15 0 0 0 11.93-3L236 317.47c3.43-1.98 5.16-4.6 5.16-7.21Z" style="opacity:.2"/><path d="M54.82 355.48c2.16 1.24 5.77 2.13 8.07.81L289 225.77c2.3-1.33 4.17-9.36 4.17-12V34.86a8.94 8.94 0 0 0-3.91-7.07 8.94 8.94 0 0 0-8.07.15L55.08 158.46a9.22 9.22 0 0 0-4.17 7.22v182.73a8.94 8.94 0 0 0 3.91 7.07Z" style="fill:#455a64"/><path d="M62.3 361a9.05 9.05 0 0 1-7.48-.13c-3.21-1.84-3.91-5.36-3.91-8V337l7.81 4.52v16.84c0 2.39 1.56 3.46 3.58 2.64Z" style="fill:#5eead4"/><path d="M62.3 361a9.05 9.05 0 0 1-7.48-.13c-3.21-1.84-3.91-5.36-3.91-8V337l7.81 4.52v16.84c0 2.39 1.56 3.46 3.58 2.64Z" style="opacity:.4"/><path d="M62.89 356.28 289 225.76c2.3-1.33 4.17-9.35 4.17-12V34.85c0-2.65-1.87-3.73-4.17-2.4L62.89 163a9.2 9.2 0 0 0-4.17 7.21v182.71c.01 2.65 1.87 4.69 4.17 3.36Z" style="fill:#37474f"/><path d="M58.72 341.48v16.84c0 2.65 1.87 3.73 4.17 2.4L289 230.2a9.22 9.22 0 0 0 4.17-7.21v-16.88Z" style="fill:#5eead4"/><path d="M58.72 341.48v16.84c0 2.65 1.87 3.73 4.17 2.4L289 230.2a9.22 9.22 0 0 0 4.17-7.21v-16.88Z" style="opacity:.30000000000000004"/><path d="M66.54 320.59V172.77a5.51 5.51 0 0 1 2.5-4.32L282.81 45c1.38-.79 2.5-.15 2.5 1.45v147.83a5.51 5.51 0 0 1-2.5 4.33L69 322c-1.34.83-2.46.18-2.46-1.41Z" style="fill:#5eead4"/><path d="M66.54 320.59V172.77a5.51 5.51 0 0 1 2.5-4.32L282.81 45c1.38-.79 2.5-.15 2.5 1.45v147.83a5.51 5.51 0 0 1-2.5 4.33L69 322c-1.34.83-2.46.18-2.46-1.41Z" style="fill:#5eead4"/><path d="M66.54 320.59V172.77a5.51 5.51 0 0 1 2.5-4.32L282.81 45c1.38-.79 2.5-.15 2.5 1.45v147.83a5.51 5.51 0 0 1-2.5 4.33L69 322c-1.34.83-2.46.18-2.46-1.41Z" style="fill:#fff;opacity:.5"/><path d="M175.92 279.8a7.62 7.62 0 0 0-3.44 6c0 2.19 1.54 3.09 3.44 2a7.6 7.6 0 0 0 3.45-6c0-2.21-1.54-3.1-3.45-2Z" style="fill:#455a64"/><path d="M60 166.06a8.86 8.86 0 0 0-1.23 4.12v171.3L50.91 337V165.68a8.63 8.63 0 0 1 1.23-4.12Z" style="fill:#263238"/><path d="M251.42 83.49 91.88 175.61v133.23l-.53.31-.94.54-2.35 1.36V173.41L247.6 81.29l2.91 1.68.91.52z" style="fill:#ebebeb"/><path d="M251.42 83.49v133.25L97.6 305.54l-3.81 2.2-.95.55-.94.53-.02.02V175.61l159.54-92.12z" style="fill:#f0f0f0"/><path d="m247.6 81.29 3.82 2.21-159.54 92.11-3.82-2.21L247.6 81.29z" style="fill:#fafafa"/><path d="m252.79 82.73-1.37.79-159.54 92.11-.53.31v133.21l-.94.54V175.4l.55-.32 159.55-92.11 1.35-.78.93.54z" style="fill:#5eead4"/><path d="m252.79 82.73-1.37.79-159.54 92.11-.53.31v133.21l-.94.54V175.4l.55-.32 159.55-92.11 1.35-.78.93.54z" style="opacity:.1"/><path d="M251.42 83.52 91.88 175.63l-.53.31v133.2l.53-.31.94-.53 1-.55 3.81-2.2 153.82-88.81 1.37-.78V82.73Z" style="fill:#5eead4"/><path d="M251.42 83.52 91.88 175.63l-.53.31v133.2l.53-.31.94-.53 1-.55 3.81-2.2 153.82-88.81 1.37-.78V82.73Z" style="opacity:.05"/><path d="m251.86 82.19.93.54-161.45 93.21-.93-.54 161.45-93.21z" style="fill:#5eead4"/><path d="m251.86 82.19.93.54-161.45 93.21-.93-.54 161.45-93.21z" style="fill:#fff;opacity:.4"/><path d="m254.28 83.59-1.49.86-1.37.8-46.61 26.91L92.84 176.8v131.49l-.94.53V176.26l159.52-92.09 1.37-.79.57-.33.92.54z" style="fill:#5eead4"/><path d="m254.28 83.59-1.49.86-1.37.8-46.61 26.91L92.84 176.8v131.49l-.94.53V176.26l159.52-92.09 1.37-.79.57-.33.92.54z" style="opacity:.1"/><path d="m252.79 84.45-1.37.8-46.61 26.91-112 64.65v131.48l1-.55 3.81-2.2 153.82-88.81 1.37-.78 1.49-.86V83.59Z" style="fill:#5eead4"/><path d="m253.35 83.05.94.54-161.45 93.22-.93-.55 161.44-93.21z" style="fill:#5eead4"/><path d="m253.35 83.05.94.54-161.45 93.22-.93-.55 161.44-93.21z" style="fill:#fff;opacity:.4"/><path d="m257.15 86.81-2.87 1.66-1.49.86-1.37.78-153.82 88.8v126.63l-3.81 2.2V176.71l157.63-91 1.37-.8.54-.3.95.55 2.87 1.65z" style="fill:#ebebeb"/><path d="m253.32 84.6 3.82 2.2-159.53 92.11-3.82-2.2L253.32 84.6z" style="fill:#fafafa"/><path d="M97.61 178.91v126.61l159.54-92.11-.01-126.6-159.53 92.1z" style="fill:#e0e0e0"/><path d="m268.46 181.87-11.31-95.06L97.6 178.92l11.64 95.86a247.91 247.91 0 0 0 81.24 155.3l.51.46 159.55-92.11a247.89 247.89 0 0 1-82.08-156.56Z" style="fill:#f5f5f5"/><path d="M105.28 179.55c1.1-.63 2-.12 2 1.15a4.41 4.41 0 0 1-2 3.46c-1.11.64-2 .12-2-1.15a4.41 4.41 0 0 1 2-3.46Z" style="fill:#37474f"/><path d="M99.66 163.64c-2.17-1.26-4.25-1.44-5.86-.51s-2.49 2.82-2.49 5.33a12.24 12.24 0 0 0 .35 2.83l1.33-.77a10.51 10.51 0 0 1-.21-2.06c0-2 .63-3.4 1.76-4.06s2.68-.47 4.38.51a15.2 15.2 0 0 1 6.88 11.91 6.24 6.24 0 0 1-.56 2.76 3.14 3.14 0 0 1-1.19 1.3l-.12.06a4.18 4.18 0 0 0-.63 1.73 4.21 4.21 0 0 0 1.48-.52 4.68 4.68 0 0 0 2.07-2.61 8.14 8.14 0 0 0 .42-2.72 16.84 16.84 0 0 0-7.61-13.18Z" style="fill:#5eead4"/><path d="M115 174c1.1-.64 2-.12 2 1.15a4.43 4.43 0 0 1-2 3.46c-1.11.63-2 .12-2-1.16a4.39 4.39 0 0 1 2-3.45Z" style="fill:#37474f"/><path d="M109.35 158c-2.17-1.25-4.25-1.43-5.86-.5s-2.49 2.82-2.49 5.33a12.16 12.16 0 0 0 .35 2.82l1.33-.77a10.41 10.41 0 0 1-.21-2c0-2 .63-3.41 1.76-4.06s2.68-.47 4.38.51a15.19 15.19 0 0 1 6.88 11.91 6 6 0 0 1-.56 2.75 3.2 3.2 0 0 1-1.19 1.3l-.12.07a4.13 4.13 0 0 0-.63 1.73 4.21 4.21 0 0 0 1.48-.52 4.7 4.7 0 0 0 2.07-2.62 8.12 8.12 0 0 0 .42-2.71 16.84 16.84 0 0 0-7.61-13.24Z" style="fill:#5eead4"/><path d="M124.66 168.36c1.1-.63 2-.12 2 1.15a4.41 4.41 0 0 1-2 3.46c-1.11.64-2 .12-2-1.15a4.41 4.41 0 0 1 2-3.46Z" style="fill:#37474f"/><path d="M119 152.45c-2.17-1.26-4.25-1.44-5.86-.51s-2.49 2.82-2.49 5.33a12.24 12.24 0 0 0 .35 2.83l1.33-.77a10.51 10.51 0 0 1-.21-2.06c0-2 .63-3.4 1.76-4.06s2.68-.47 4.38.51a15.2 15.2 0 0 1 6.88 11.91 6.08 6.08 0 0 1-.56 2.76 3.2 3.2 0 0 1-1.19 1.3l-.12.06a4.33 4.33 0 0 0-.63 1.73 4 4 0 0 0 1.48-.52 4.71 4.71 0 0 0 2.07-2.61 8.14 8.14 0 0 0 .42-2.72 16.84 16.84 0 0 0-7.61-13.18Z" style="fill:#5eead4"/><path d="M134.35 162.77c1.1-.64 2-.12 2 1.15a4.43 4.43 0 0 1-2 3.46c-1.1.63-2 .12-2-1.16a4.4 4.4 0 0 1 2-3.45Z" style="fill:#37474f"/><path d="M128.73 146.85c-2.17-1.25-4.25-1.43-5.86-.5s-2.49 2.82-2.49 5.33a12.16 12.16 0 0 0 .35 2.82l1.33-.77a10.41 10.41 0 0 1-.21-2c0-2 .63-3.41 1.76-4.06s2.69-.47 4.38.51a15.19 15.19 0 0 1 6.88 11.82 6 6 0 0 1-.56 2.75 3.2 3.2 0 0 1-1.19 1.3l-.12.07a4.27 4.27 0 0 0-.63 1.73 4.21 4.21 0 0 0 1.48-.52 4.7 4.7 0 0 0 2.07-2.62 8.12 8.12 0 0 0 .42-2.71 16.84 16.84 0 0 0-7.61-13.15Z" style="fill:#5eead4"/><path d="M144 157.17c1.1-.63 2-.12 2 1.15a4.41 4.41 0 0 1-2 3.46c-1.1.64-2 .12-2-1.15a4.44 4.44 0 0 1 2-3.46Z" style="fill:#37474f"/><path d="M138.42 141.26c-2.17-1.26-4.25-1.44-5.86-.51s-2.49 2.82-2.49 5.33a12.24 12.24 0 0 0 .35 2.83l1.33-.77a10.49 10.49 0 0 1-.2-2.06c0-2 .62-3.4 1.75-4.06s2.69-.47 4.39.51a15.22 15.22 0 0 1 6.87 11.91 6.08 6.08 0 0 1-.56 2.76 3.2 3.2 0 0 1-1.19 1.3l-.12.06a4.48 4.48 0 0 0-.63 1.73 4 4 0 0 0 1.48-.52 4.71 4.71 0 0 0 2.07-2.61 8.14 8.14 0 0 0 .42-2.72 16.84 16.84 0 0 0-7.61-13.18Z" style="fill:#5eead4"/><path d="M153.73 151.58c1.1-.64 2-.12 2 1.15a4.43 4.43 0 0 1-2 3.46c-1.1.63-2 .12-2-1.16a4.4 4.4 0 0 1 2-3.45Z" style="fill:#37474f"/><path d="M148.11 135.66c-2.17-1.25-4.25-1.43-5.86-.5s-2.49 2.82-2.49 5.32a12.74 12.74 0 0 0 .35 2.83l1.33-.77a10.42 10.42 0 0 1-.2-2.06c0-2 .62-3.4 1.75-4s2.69-.47 4.39.51a15.2 15.2 0 0 1 6.87 11.91 6.06 6.06 0 0 1-.56 2.75 3.2 3.2 0 0 1-1.19 1.3l-.12.07a4.43 4.43 0 0 0-.63 1.73 4.34 4.34 0 0 0 1.49-.52 4.69 4.69 0 0 0 2.06-2.62 8.11 8.11 0 0 0 .43-2.71 16.85 16.85 0 0 0-7.62-13.24Z" style="fill:#5eead4"/><path d="M163.42 146c1.1-.63 2-.12 2 1.15a4.41 4.41 0 0 1-2 3.46c-1.1.64-2 .12-2-1.15a4.44 4.44 0 0 1 2-3.46Z" style="fill:#37474f"/><path d="M157.8 130.07c-2.17-1.26-4.25-1.44-5.86-.51s-2.49 2.82-2.49 5.33a12.81 12.81 0 0 0 .35 2.83l1.33-.77a11.31 11.31 0 0 1-.2-2.06c0-2 .62-3.4 1.75-4.06s2.69-.47 4.39.51a15.22 15.22 0 0 1 6.87 11.91 6.08 6.08 0 0 1-.56 2.76 3.2 3.2 0 0 1-1.19 1.3l-.12.06a4.43 4.43 0 0 0-.63 1.73 4.14 4.14 0 0 0 1.49-.52A4.7 4.7 0 0 0 165 146a8.13 8.13 0 0 0 .43-2.72 16.85 16.85 0 0 0-7.63-13.21Z" style="fill:#5eead4"/><path d="M173.11 140.39c1.1-.64 2-.12 2 1.15a4.43 4.43 0 0 1-2 3.46c-1.1.63-2 .12-2-1.16a4.4 4.4 0 0 1 2-3.45Z" style="fill:#37474f"/><path d="M167.49 124.47c-2.17-1.25-4.25-1.43-5.86-.5s-2.49 2.81-2.49 5.32a12.74 12.74 0 0 0 .35 2.83l1.33-.77a11.22 11.22 0 0 1-.2-2.06c0-2 .62-3.4 1.75-4s2.69-.47 4.39.51a15.2 15.2 0 0 1 6.87 11.91 6.06 6.06 0 0 1-.56 2.75 3.07 3.07 0 0 1-1.19 1.3l-.12.07a4.43 4.43 0 0 0-.63 1.73 4.34 4.34 0 0 0 1.49-.52 4.72 4.72 0 0 0 2.06-2.62 8.11 8.11 0 0 0 .43-2.71 16.85 16.85 0 0 0-7.62-13.24Z" style="fill:#5eead4"/><path d="M182.8 134.79c1.1-.63 2-.12 2 1.15a4.41 4.41 0 0 1-2 3.46c-1.1.64-2 .12-2-1.15a4.44 4.44 0 0 1 2-3.46Z" style="fill:#37474f"/><path d="M177.18 118.88c-2.17-1.26-4.25-1.44-5.86-.51s-2.49 2.82-2.49 5.33a12.81 12.81 0 0 0 .35 2.83l1.33-.77a11.31 11.31 0 0 1-.2-2.06c0-2 .62-3.4 1.75-4.06s2.69-.47 4.39.51a15.22 15.22 0 0 1 6.87 11.91 6 6 0 0 1-.56 2.75 3.16 3.16 0 0 1-1.19 1.31l-.12.06a4.43 4.43 0 0 0-.63 1.73 4.14 4.14 0 0 0 1.49-.52 4.7 4.7 0 0 0 2.06-2.61 8.13 8.13 0 0 0 .43-2.72 16.85 16.85 0 0 0-7.62-13.18Z" style="fill:#5eead4"/><path d="M192.49 129.2c1.1-.64 2-.12 2 1.15a4.43 4.43 0 0 1-2 3.46c-1.1.63-2 .12-2-1.16a4.39 4.39 0 0 1 2-3.45Z" style="fill:#37474f"/><path d="M186.87 113.28c-2.17-1.25-4.25-1.43-5.86-.5s-2.49 2.81-2.49 5.32a12.74 12.74 0 0 0 .35 2.83l1.33-.77a11.22 11.22 0 0 1-.2-2.06c0-2 .62-3.4 1.75-4s2.69-.47 4.39.51a15.2 15.2 0 0 1 6.86 11.86 6.06 6.06 0 0 1-.56 2.75 3.2 3.2 0 0 1-1.19 1.3l-.12.07a4.43 4.43 0 0 0-.63 1.73 4.34 4.34 0 0 0 1.49-.52 4.75 4.75 0 0 0 2.07-2.62 8.38 8.38 0 0 0 .42-2.71 16.85 16.85 0 0 0-7.61-13.19Z" style="fill:#5eead4"/><path d="M202.18 123.6c1.1-.63 2-.12 2 1.15a4.41 4.41 0 0 1-2 3.46c-1.1.64-2 .12-2-1.15a4.43 4.43 0 0 1 2-3.46Z" style="fill:#37474f"/><path d="M196.56 107.69c-2.17-1.26-4.25-1.44-5.85-.51s-2.5 2.82-2.5 5.33a12.81 12.81 0 0 0 .35 2.83l1.33-.77a11.31 11.31 0 0 1-.2-2.06c0-2 .62-3.4 1.75-4.06s2.69-.47 4.39.51a15.22 15.22 0 0 1 6.87 11.91 6 6 0 0 1-.56 2.75 3.1 3.1 0 0 1-1.19 1.31l-.12.06a4.43 4.43 0 0 0-.63 1.73 4.34 4.34 0 0 0 1.49-.52 4.71 4.71 0 0 0 2.07-2.61 8.14 8.14 0 0 0 .42-2.72 16.85 16.85 0 0 0-7.62-13.18Z" style="fill:#5eead4"/><path d="M211.86 118c1.1-.64 2-.12 2 1.15a4.43 4.43 0 0 1-2 3.46c-1.1.63-2 .12-2-1.15a4.41 4.41 0 0 1 2-3.46Z" style="fill:#37474f"/><path d="M206.24 102.09c-2.17-1.25-4.25-1.43-5.86-.5s-2.49 2.82-2.49 5.33a12.88 12.88 0 0 0 .35 2.83l1.33-.77a11.31 11.31 0 0 1-.2-2.06c0-2 .62-3.41 1.75-4.06s2.69-.47 4.39.51a15.22 15.22 0 0 1 6.87 11.91 6 6 0 0 1-.56 2.75 3.14 3.14 0 0 1-1.19 1.3l-.12.07a4.43 4.43 0 0 0-.63 1.73 4.34 4.34 0 0 0 1.49-.52 4.75 4.75 0 0 0 2.07-2.62 8.34 8.34 0 0 0 .42-2.71 16.87 16.87 0 0 0-7.62-13.19Z" style="fill:#5eead4"/><path d="M221.55 112.41c1.1-.63 2-.12 2 1.16a4.39 4.39 0 0 1-2 3.45c-1.1.64-2 .12-2-1.15a4.43 4.43 0 0 1 2-3.46Z" style="fill:#37474f"/><path d="M215.93 96.5c-2.17-1.25-4.25-1.44-5.85-.51s-2.49 2.82-2.49 5.33a12.71 12.71 0 0 0 .34 2.83l1.33-.77a11.31 11.31 0 0 1-.2-2.06c0-2 .62-3.4 1.75-4.06s2.69-.47 4.39.52a15.2 15.2 0 0 1 6.87 11.91 6.06 6.06 0 0 1-.56 2.75 3.07 3.07 0 0 1-1.19 1.3l-.12.06a4.47 4.47 0 0 0-.63 1.74 4.56 4.56 0 0 0 1.49-.52 4.74 4.74 0 0 0 2.07-2.62 8.12 8.12 0 0 0 .42-2.71 16.85 16.85 0 0 0-7.62-13.19Z" style="fill:#5eead4"/><path d="M231.24 106.82c1.1-.64 2-.12 2 1.15a4.44 4.44 0 0 1-2 3.46c-1.1.63-2 .12-2-1.15a4.41 4.41 0 0 1 2-3.46Z" style="fill:#37474f"/><path d="M225.63 90.9c-2.18-1.25-4.26-1.43-5.86-.5s-2.49 2.82-2.49 5.33a12.85 12.85 0 0 0 .34 2.83l1.34-.78a10.41 10.41 0 0 1-.21-2c0-2 .62-3.41 1.75-4.06s2.69-.47 4.39.51a15.23 15.23 0 0 1 6.88 11.91 6.17 6.17 0 0 1-.56 2.75 3.22 3.22 0 0 1-1.2 1.3l-.12.07a4.25 4.25 0 0 0-.62 1.73 4.36 4.36 0 0 0 1.48-.52 4.75 4.75 0 0 0 2.07-2.62 8.34 8.34 0 0 0 .42-2.71 16.87 16.87 0 0 0-7.61-13.24Z" style="fill:#5eead4"/><path d="M240.93 101.22c1.1-.63 2-.12 2 1.16a4.4 4.4 0 0 1-2 3.45c-1.1.64-2 .12-2-1.15a4.43 4.43 0 0 1 2-3.46Z" style="fill:#37474f"/><path d="M235.32 85.31c-2.17-1.25-4.26-1.44-5.86-.51S227 87.62 227 90.13a12.71 12.71 0 0 0 .34 2.83l1.34-.77a10.51 10.51 0 0 1-.21-2.06c0-2 .62-3.4 1.75-4.06s2.69-.47 4.39.52a15.21 15.21 0 0 1 6.88 11.91 6.2 6.2 0 0 1-.56 2.75 3.29 3.29 0 0 1-1.2 1.3l-.12.06a4.3 4.3 0 0 0-.62 1.74 4.58 4.58 0 0 0 1.48-.52 4.74 4.74 0 0 0 2.07-2.62 8.38 8.38 0 0 0 .42-2.71 16.84 16.84 0 0 0-7.64-13.19Z" style="fill:#5eead4"/><path d="M250.62 95.63c1.1-.64 2-.12 2 1.15a4.44 4.44 0 0 1-2 3.46c-1.1.63-2 .12-2-1.15a4.41 4.41 0 0 1 2-3.46Z" style="fill:#37474f"/><path d="M245 79.71c-2.17-1.25-4.26-1.43-5.86-.5s-2.49 2.82-2.49 5.33a12.31 12.31 0 0 0 .35 2.83l1.33-.78a10.41 10.41 0 0 1-.21-2c0-2 .62-3.41 1.75-4.06s2.69-.47 4.39.51a15.23 15.23 0 0 1 6.88 11.91 6.17 6.17 0 0 1-.56 2.75 3.16 3.16 0 0 1-1.2 1.3l-.12.07a4.25 4.25 0 0 0-.62 1.73 4.36 4.36 0 0 0 1.48-.52 4.7 4.7 0 0 0 2.07-2.62 8.08 8.08 0 0 0 .42-2.71A16.84 16.84 0 0 0 245 79.71Z" style="fill:#5eead4"/><path d="M245 79.71c-2.17-1.25-4.26-1.43-5.86-.5s-2.49 2.82-2.49 5.33a11.26 11.26 0 0 0 .16 1.81 13 13 0 0 0-1.5-1c-2.18-1.25-4.26-1.44-5.86-.51S227 87.62 227 90.13a11.49 11.49 0 0 0 .16 1.82 12 12 0 0 0-1.5-1c-2.18-1.25-4.26-1.43-5.86-.5s-2.49 2.82-2.49 5.33a11.26 11.26 0 0 0 .16 1.81 12.31 12.31 0 0 0-1.51-1c-2.17-1.25-4.25-1.44-5.85-.51s-2.49 2.82-2.49 5.33a11.49 11.49 0 0 0 .16 1.82 11.38 11.38 0 0 0-1.51-1c-2.17-1.25-4.25-1.43-5.86-.5s-2.49 2.82-2.49 5.33a11.28 11.28 0 0 0 .17 1.8 11.12 11.12 0 0 0-1.5-1c-2.17-1.26-4.25-1.44-5.85-.51s-2.5 2.82-2.5 5.33a11.29 11.29 0 0 0 .17 1.81 12.31 12.31 0 0 0-1.51-1c-2.17-1.25-4.25-1.43-5.86-.5s-2.49 2.81-2.49 5.32a11.52 11.52 0 0 0 .17 1.82 10.43 10.43 0 0 0-1.51-1c-2.17-1.26-4.25-1.44-5.86-.51s-2.49 2.82-2.49 5.33a11.29 11.29 0 0 0 .17 1.81 12.31 12.31 0 0 0-1.51-1c-2.17-1.25-4.25-1.43-5.86-.5s-2.49 2.81-2.49 5.32a11.42 11.42 0 0 0 .17 1.82 11.29 11.29 0 0 0-1.51-1c-2.17-1.26-4.25-1.44-5.86-.51s-2.49 2.82-2.49 5.33a11.29 11.29 0 0 0 .17 1.81 12.31 12.31 0 0 0-1.51-1c-2.17-1.25-4.25-1.43-5.86-.5s-2.49 2.82-2.49 5.32a11.42 11.42 0 0 0 .17 1.82 11.29 11.29 0 0 0-1.51-1c-2.17-1.26-4.25-1.44-5.86-.51s-2.49 2.82-2.49 5.33a11.29 11.29 0 0 0 .17 1.81 12.31 12.31 0 0 0-1.51-1c-2.17-1.25-4.25-1.43-5.86-.5s-2.49 2.82-2.49 5.33a11.4 11.4 0 0 0 .17 1.81 11.29 11.29 0 0 0-1.51-1c-2.17-1.26-4.25-1.44-5.86-.51s-2.49 2.82-2.49 5.33a11.29 11.29 0 0 0 .17 1.81 12.31 12.31 0 0 0-1.51-1c-2.17-1.25-4.25-1.43-5.86-.5s-2.49 2.82-2.49 5.33a11.4 11.4 0 0 0 .17 1.81 11.29 11.29 0 0 0-1.51-1c-2.17-1.26-4.25-1.44-5.86-.51s-2.49 2.82-2.49 5.33a12.24 12.24 0 0 0 .35 2.83l1.33-.77a10.51 10.51 0 0 1-.21-2.06c0-2 .63-3.4 1.76-4.06s2.68-.47 4.38.51a15.2 15.2 0 0 1 6.88 11.91 6.24 6.24 0 0 1-.56 2.76 3.14 3.14 0 0 1-1.19 1.3l-.12.06a4.18 4.18 0 0 0-.63 1.73 4.21 4.21 0 0 0 1.48-.52 4.68 4.68 0 0 0 2.07-2.61 8.14 8.14 0 0 0 .42-2.72c0-3.93-2.24-8.56-5.33-11.47l.74-.43a10.41 10.41 0 0 1-.21-2c0-2 .63-3.41 1.76-4.06s2.68-.47 4.38.51a15.19 15.19 0 0 1 6.88 11.91 6 6 0 0 1-.56 2.75 3.2 3.2 0 0 1-1.19 1.3l-.12.07a4.13 4.13 0 0 0-.63 1.73 4.21 4.21 0 0 0 1.48-.52 4.7 4.7 0 0 0 2.07-2.62 8.12 8.12 0 0 0 .42-2.71c0-3.93-2.24-8.57-5.33-11.47l.74-.43a10.51 10.51 0 0 1-.21-2.06c0-2 .63-3.4 1.76-4.06s2.68-.47 4.38.51a15.2 15.2 0 0 1 6.88 11.91 6.08 6.08 0 0 1-.56 2.76 3.2 3.2 0 0 1-1.19 1.3l-.12.06a4.27 4.27 0 0 0-.63 1.73 4 4 0 0 0 1.48-.52 4.71 4.71 0 0 0 2.07-2.61 8.14 8.14 0 0 0 .42-2.72c0-3.93-2.24-8.56-5.33-11.47l.74-.43a10.41 10.41 0 0 1-.21-2c0-2 .63-3.41 1.76-4.06s2.69-.47 4.38.51a15.19 15.19 0 0 1 6.85 11.2 6 6 0 0 1-.56 2.75 3.2 3.2 0 0 1-1.19 1.3l-.12.07a4.27 4.27 0 0 0-.63 1.73 4.21 4.21 0 0 0 1.48-.52 4.7 4.7 0 0 0 2.07-2.62 8.12 8.12 0 0 0 .42-2.71c0-3.93-2.24-8.57-5.33-11.47l.74-.43a10.49 10.49 0 0 1-.2-2.06c0-2 .62-3.4 1.75-4.06s2.69-.47 4.38.51a15.2 15.2 0 0 1 6.88 11.91 6.08 6.08 0 0 1-.56 2.76 3.2 3.2 0 0 1-1.19 1.3l-.12.06a4.43 4.43 0 0 0-.63 1.73 4.14 4.14 0 0 0 1.49-.52 4.74 4.74 0 0 0 2.06-2.61 8.13 8.13 0 0 0 .43-2.72c0-3.93-2.25-8.56-5.34-11.47l.74-.43a10.42 10.42 0 0 1-.2-2.06c0-2 .62-3.4 1.75-4s2.69-.47 4.39.51a15.2 15.2 0 0 1 6.87 11.91 6.06 6.06 0 0 1-.56 2.75 3.2 3.2 0 0 1-1.19 1.3l-.12.07a4.43 4.43 0 0 0-.63 1.73 4.34 4.34 0 0 0 1.49-.52 4.69 4.69 0 0 0 2.06-2.62 8.11 8.11 0 0 0 .43-2.71c0-3.93-2.25-8.57-5.34-11.47l.74-.43a11.31 11.31 0 0 1-.2-2.06c0-2 .62-3.4 1.75-4.06s2.69-.47 4.39.51a15.22 15.22 0 0 1 6.87 11.91 6.08 6.08 0 0 1-.56 2.76 3.2 3.2 0 0 1-1.19 1.3l-.12.06a4.43 4.43 0 0 0-.63 1.73 4.14 4.14 0 0 0 1.49-.52A4.7 4.7 0 0 0 165 146a8.13 8.13 0 0 0 .43-2.72c0-3.93-2.25-8.56-5.34-11.47l.74-.43a11.22 11.22 0 0 1-.2-2.06c0-2 .62-3.4 1.75-4s2.69-.47 4.39.51a15.2 15.2 0 0 1 6.87 11.91 6.06 6.06 0 0 1-.56 2.75 3.07 3.07 0 0 1-1.19 1.3l-.12.07a4.43 4.43 0 0 0-.63 1.73 4.34 4.34 0 0 0 1.49-.52 4.72 4.72 0 0 0 2.06-2.62 8.11 8.11 0 0 0 .43-2.71c0-3.93-2.25-8.57-5.34-11.47l.74-.43a11.31 11.31 0 0 1-.2-2.06c0-2 .62-3.4 1.75-4.06s2.69-.47 4.39.51a15.22 15.22 0 0 1 6.87 11.91 6 6 0 0 1-.56 2.75 3.16 3.16 0 0 1-1.19 1.31l-.12.06a4.43 4.43 0 0 0-.63 1.73 4.14 4.14 0 0 0 1.49-.52 4.7 4.7 0 0 0 2.06-2.61 8.13 8.13 0 0 0 .43-2.72c0-3.93-2.25-8.56-5.34-11.47l.74-.43a11.22 11.22 0 0 1-.2-2.06c0-2 .62-3.4 1.75-4s2.69-.47 4.39.51a15.2 15.2 0 0 1 6.85 11.78 6.06 6.06 0 0 1-.56 2.75 3.2 3.2 0 0 1-1.19 1.3l-.12.07a4.43 4.43 0 0 0-.63 1.73 4.34 4.34 0 0 0 1.49-.52 4.75 4.75 0 0 0 2.07-2.62 8.38 8.38 0 0 0 .42-2.71c0-3.93-2.25-8.57-5.34-11.47l.74-.43a11.31 11.31 0 0 1-.2-2.06c0-2 .62-3.4 1.75-4.06s2.69-.47 4.39.51a15.22 15.22 0 0 1 6.87 11.91 6 6 0 0 1-.56 2.75 3.1 3.1 0 0 1-1.19 1.31l-.12.06a4.43 4.43 0 0 0-.63 1.73 4.34 4.34 0 0 0 1.49-.52 4.71 4.71 0 0 0 2.07-2.61 8.14 8.14 0 0 0 .42-2.72c0-3.93-2.25-8.57-5.34-11.47l.73-.42a11.31 11.31 0 0 1-.2-2.06c0-2 .62-3.41 1.75-4.06s2.69-.47 4.39.51a15.22 15.22 0 0 1 6.87 11.91 6 6 0 0 1-.56 2.75 3.14 3.14 0 0 1-1.19 1.3l-.12.07a4.43 4.43 0 0 0-.63 1.73 4.34 4.34 0 0 0 1.49-.52 4.75 4.75 0 0 0 2.07-2.62 8.34 8.34 0 0 0 .42-2.71c0-3.93-2.25-8.57-5.34-11.47l.74-.43a11.31 11.31 0 0 1-.2-2.06c0-2 .62-3.4 1.75-4.06s2.69-.47 4.39.52a15.2 15.2 0 0 1 6.87 11.91 6.06 6.06 0 0 1-.56 2.75 3.07 3.07 0 0 1-1.19 1.3l-.12.06a4.47 4.47 0 0 0-.63 1.74 4.56 4.56 0 0 0 1.49-.52 4.74 4.74 0 0 0 2.07-2.62 8.12 8.12 0 0 0 .42-2.71c0-3.94-2.25-8.57-5.34-11.47l.75-.44a10.41 10.41 0 0 1-.21-2c0-2 .62-3.41 1.75-4.06s2.69-.47 4.39.51a15.23 15.23 0 0 1 6.88 11.91 6.17 6.17 0 0 1-.56 2.75 3.22 3.22 0 0 1-1.2 1.3l-.12.07a4.25 4.25 0 0 0-.62 1.73 4.36 4.36 0 0 0 1.48-.52 4.75 4.75 0 0 0 2.07-2.62 8.34 8.34 0 0 0 .42-2.71c0-3.93-2.25-8.57-5.34-11.47l.75-.43a10.51 10.51 0 0 1-.21-2.06c0-2 .62-3.4 1.75-4.06s2.69-.47 4.39.52a15.21 15.21 0 0 1 6.88 11.91 6.2 6.2 0 0 1-.56 2.75 3.29 3.29 0 0 1-1.2 1.3l-.12.06a4.3 4.3 0 0 0-.62 1.74 4.58 4.58 0 0 0 1.48-.52 4.74 4.74 0 0 0 2.07-2.62 8.38 8.38 0 0 0 .42-2.71c0-3.94-2.25-8.57-5.34-11.48l.75-.43a10.41 10.41 0 0 1-.21-2c0-2 .62-3.41 1.75-4.06s2.69-.47 4.39.51A15.23 15.23 0 0 1 251.14 93a6.17 6.17 0 0 1-.56 2.75 3.16 3.16 0 0 1-1.2 1.3l-.12.07a4.25 4.25 0 0 0-.62 1.73 4.36 4.36 0 0 0 1.48-.52 4.7 4.7 0 0 0 2.07-2.62 8.08 8.08 0 0 0 .42-2.71A16.84 16.84 0 0 0 245 79.71Z" style="opacity:.4"/><path d="m114.22 191.54 131.28-75.79c2.29-1.32 4.4-.27 4.71 2.36l2.18 18a7.87 7.87 0 0 1-3.58 7.15l-131.23 75.68c-2.29 1.32-4.41.26-4.73-2.36l-2.2-17.89a7.84 7.84 0 0 1 3.57-7.15Z" style="fill:#5eead4"/><path d="m125.93 205.81-1.73 1.36-2.39-11.59-.53 11.56 1.23-.41-.08 1.23L119 210l.08-1.24 1.13-.94.54-12.15-1.15.3.08-1.19 3.56-2.05 2.13 10.62 2.37-13.22 3.53-2-.08 1.24-1 .86.27 11.72 1.21-.42-.08 1.23-4.06 2.24.08-1.23 1.13-.93-.24-11.4ZM133.81 206.24c-.77.44-1.29.13-1.29-.78a2.87 2.87 0 0 1 1.17-2.49l.18.59c.13.41.27.75.61.55s.55-.82.77-1.69l.57-2.19-.36.21c-.55.32-.91.12-1.25-.53a15.19 15.19 0 0 1-.74-5.71v-1.61c0-.45-.1-.54-.3-.42a3.7 3.7 0 0 0-.7.68l-.22-1a6.68 6.68 0 0 1 1.74-1.68c.94-.54 1.23.12 1.23 1.24v1.6a17 17 0 0 0 .51 5c.16.52.34.5.53.39h.06l1.47-6.35c.29-1.24.14-1.45-.32-1.44H137a2.76 2.76 0 0 1 1.07-2.72c.68-.39 1.12 0 1.12 1.18a25.19 25.19 0 0 1-.92 5.08l-1.74 7c-.63 2.36-1.22 4.22-2.72 5.09ZM144.45 194.55l.35-14.15-1.1.19.08-1.19 2.42-1.4.22.1-.17 7.1-.41 5.21h.11l.51-3.21c.52-3.29 1.1-4.89 2.42-5.65 1.48-.86 2.14.6 2.14 3.39 0 4.41-1.45 7.66-3.6 8.9a5.05 5.05 0 0 1-2.97.71Zm2.45-5-.52 3a1.18 1.18 0 0 0 1-.19c1.28-.74 1.77-3.65 1.77-6.21 0-1.3 0-2.9-.63-2.54s-.93 1.91-1.62 5.93ZM152.32 175.62l.11-1.21 2.47-1.41.22.11-.3 13.93c0 .58.05.86.36.68a2.67 2.67 0 0 0 .72-.89l.32.84a6 6 0 0 1-1.83 2.15c-.85.5-1.33.08-1.29-1.45l.34-12.94ZM160.54 174.81c2.07-1.2 3 .46 3 3.61s-1 6.67-3.41 8.07c-1.95 1.12-3-.34-3-3.54s.87-6.68 3.41-8.14Zm1.17 4.65c0-2.3-.22-3.8-1.25-3.21-1.27.73-1.47 3.28-1.47 5.65s.28 3.67 1.27 3.1c1.21-.7 1.45-3 1.45-5.54ZM169.89 175l-.29 1.76c-.59 3.56-1.1 4.91-2.3 5.6-1.56.9-2.24-.82-2.24-3.34 0-4 1.31-7.55 3.32-8.71a3.32 3.32 0 0 1 1.69-.47l.92-1.06.55-.1-.22 9.37c-.09 3.56-1.42 7.4-4.14 9-1.09.63-2.23.61-2.23-.93a2.57 2.57 0 0 1 1-2.2.74.74 0 0 1 .91.07l-.13.62c-.22 1.06-.07 1.4.65 1 1.43-.82 2.19-3.16 2.36-6.5l.22-4.09Zm-.65-.72.47-2.83a1.15 1.15 0 0 0-1 .17c-1.29.74-1.8 3.47-1.8 6.37 0 1.88.08 2.83.69 2.48s.89-1.62 1.64-6.22ZM245.61 129.88v.21a5.49 5.49 0 0 1-2.51 5l-61.72 35.6a2.05 2.05 0 0 1-3.28-1.69v-.18a5.52 5.52 0 0 1 2.5-5l61.73-35.63a2.05 2.05 0 0 1 3.28 1.69Z" style="fill:#fafafa"/><path d="m238 138.05 5.12-3a5.49 5.49 0 0 0 2.51-5v-.21a2.05 2.05 0 0 0-3.3-1.66l-5.12 3Z" style="fill:#455a64"/><path d="M144.34 212.61a3.87 3.87 0 0 1-1.8 3.51L116.8 231a1.45 1.45 0 0 1-2.35-1.12 3.85 3.85 0 0 1 1.79-3.51L142 211.49a1.44 1.44 0 0 1 2.34 1.12ZM204.12 178.1a3.88 3.88 0 0 1-1.8 3.51l-50.67 29.25a1.45 1.45 0 0 1-2.35-1.12 3.87 3.87 0 0 1 1.8-3.51L201.77 177a1.45 1.45 0 0 1 2.35 1.1ZM252.12 152.86l-40.69 23.49a1.45 1.45 0 0 1-2.35-1.12 3.87 3.87 0 0 1 1.8-3.51l40.71-23.51a1.44 1.44 0 0 1 2.34 1.13 3.9 3.9 0 0 1-1.81 3.52ZM135.79 229.42a3.87 3.87 0 0 1-1.8 3.51L118.2 242a1.49 1.49 0 0 1-2.42-1.08 3.74 3.74 0 0 1 1.73-3.48l15.92-9.18a1.45 1.45 0 0 1 2.36 1.16ZM185.54 200.69a3.88 3.88 0 0 1-1.79 3.51l-40.65 23.47a1.44 1.44 0 0 1-2.35-1.12 3.88 3.88 0 0 1 1.79-3.51l40.64-23.46a1.45 1.45 0 0 1 2.36 1.11ZM253.52 163.92l-60.66 35a1.45 1.45 0 0 1-2.36-1.13 3.89 3.89 0 0 1 1.8-3.51l60.56-35a1.49 1.49 0 0 1 2.41 1.09 3.74 3.74 0 0 1-1.75 3.55ZM157 228.81a3.88 3.88 0 0 1-1.8 3.52l-35.59 20.55a1.54 1.54 0 0 1-2.48-1 3.53 3.53 0 0 1 1.66-3.43l35.86-20.71a1.45 1.45 0 0 1 2.35 1.07ZM221.66 191.45a3.86 3.86 0 0 1-1.79 3.52l-55 31.74a1.45 1.45 0 0 1-2.35-1.12 3.89 3.89 0 0 1 1.8-3.52l55-31.74a1.45 1.45 0 0 1 2.34 1.12ZM254.88 174.76l-25.9 15a1.45 1.45 0 0 1-2.36-1.12 3.9 3.9 0 0 1 1.8-3.52l25.67-14.82a1.54 1.54 0 0 1 2.47 1.06 3.58 3.58 0 0 1-1.68 3.4ZM178.16 228a3.85 3.85 0 0 1-1.79 3.51l-55.47 32a1.59 1.59 0 0 1-2.54-1 3.4 3.4 0 0 1 1.6-3.41l55.84-32.24a1.45 1.45 0 0 1 2.36 1.14ZM208 210.75a3.86 3.86 0 0 1-1.79 3.51l-20.76 12a1.44 1.44 0 0 1-2.35-1.12 3.86 3.86 0 0 1 1.79-3.51l20.75-12a1.45 1.45 0 0 1 2.36 1.12ZM256.22 185.4 216 208.64a1.45 1.45 0 0 1-2.35-1.12 3.87 3.87 0 0 1 1.79-3.52l39.9-23a1.58 1.58 0 0 1 2.53 1 3.44 3.44 0 0 1-1.65 3.4ZM129.78 268a3.78 3.78 0 0 1-1.75 3.5l-5.59 3.23a1.66 1.66 0 0 1-2.62-1 3.26 3.26 0 0 1 1.53-3.37l6-3.49a1.48 1.48 0 0 1 2.43 1.13ZM157 252.34a3.76 3.76 0 0 1-1.74 3.49l-18 10.4a1.48 1.48 0 0 1-2.41-1.09 3.76 3.76 0 0 1 1.75-3.49l18-10.41a1.47 1.47 0 0 1 2.4 1.1ZM194.33 230.76a3.68 3.68 0 0 1-1.71 3.47l-28.26 16.31a1.49 1.49 0 0 1-2.41-1.09 3.76 3.76 0 0 1 1.75-3.45l28.21-16.28a1.5 1.5 0 0 1 2.42 1.04ZM146.52 271.34a3.52 3.52 0 0 1-1.65 3.43l-20.37 11.76a1.71 1.71 0 0 1-2.68-.93 3.11 3.11 0 0 1 1.47-3.32l20.74-12a1.55 1.55 0 0 1 2.49 1.06ZM176.39 254.1a3.5 3.5 0 0 1-1.64 3.42l-12.7 7.33-7.87 4.54a1.56 1.56 0 0 1-2.51-1 3.53 3.53 0 0 1 1.66-3.43l20.57-11.88a1.55 1.55 0 0 1 2.49 1.02ZM196.35 242.57a3.52 3.52 0 0 1-1.64 3.43l-10.66 6.15a1.56 1.56 0 0 1-2.5-1 3.51 3.51 0 0 1 1.66-3.43l10.66-6.15a1.54 1.54 0 0 1 2.48 1ZM164.08 274a3.29 3.29 0 0 1-1.54 3.38L127 297.91a1.79 1.79 0 0 1-2.75-.89 3 3 0 0 1 1.4-3.29l35.81-20.68a1.63 1.63 0 0 1 2.62.95ZM198.74 254a3.34 3.34 0 0 1-1.56 3.39l-25.55 14.75a1.64 1.64 0 0 1-2.6-1 3.32 3.32 0 0 1 1.56-3.39L196.17 253a1.62 1.62 0 0 1 2.57 1ZM147.08 296.55a3.1 3.1 0 0 1-1.45 3.32l-15.63 9a1.84 1.84 0 0 1-2.8-.86 2.84 2.84 0 0 1 1.34-3.25l15.86-9.16a1.72 1.72 0 0 1 2.68.95ZM175.52 282.61l-20.78 12a1.74 1.74 0 0 1-2.71-.92 3.12 3.12 0 0 1 1.47-3.33l20.8-12a1.71 1.71 0 0 1 2.67.93 3.09 3.09 0 0 1-1.45 3.32ZM201.54 265.11a3.13 3.13 0 0 1-1.46 3.33l-15.46 8.92a1.73 1.73 0 0 1-2.7-.92 3.12 3.12 0 0 1 1.47-3.33l15.49-8.94a1.7 1.7 0 0 1 2.66.94ZM170.38 295.64a2.91 2.91 0 0 1-1.37 3.27l-35.62 20.57a1.93 1.93 0 0 1-2.88-.83 2.74 2.74 0 0 1 1.28-3.22l35.81-20.67a1.81 1.81 0 0 1 2.78.88ZM204.87 275.72a2.86 2.86 0 0 1-1.33 3.25l-25.43 14.68a1.82 1.82 0 0 1-2.78-.87 2.9 2.9 0 0 1 1.37-3.27l25.39-14.66a1.82 1.82 0 0 1 2.78.87Z" style="fill:#455a64;opacity:.4"/><path d="M194 294.35a2.76 2.76 0 0 1-1.29 3.22l-55.6 32.1a2 2 0 0 1-2.93-.78 2.61 2.61 0 0 1 1.21-3.18l55.75-32.19a1.9 1.9 0 0 1 2.86.83Z" style="fill:#5eead4"/><path d="M233.89 271.34a2.74 2.74 0 0 1-1.28 3.22l-31.15 18a1.92 1.92 0 0 1-2.87-.83 2.74 2.74 0 0 1 1.28-3.22l31.16-18a1.9 1.9 0 0 1 2.86.83ZM272.47 251.55l-31.15 18a1.92 1.92 0 0 1-2.87-.82 2.74 2.74 0 0 1 1.28-3.22l31-17.92a2 2 0 0 1 2.92.79 2.64 2.64 0 0 1-1.18 3.17ZM158.21 327.24a2.61 2.61 0 0 1-1.2 3.17l-15.72 9.08a2.08 2.08 0 0 1-3-.75 2.5 2.5 0 0 1 1.14-3.14l15.85-9.15a2 2 0 0 1 2.93.79ZM213.05 295.58a2.63 2.63 0 0 1-1.22 3.18l-45.61 26.34a2 2 0 0 1-3-.78 2.63 2.63 0 0 1 1.22-3.18l45.65-26.35a2 2 0 0 1 2.96.79ZM255.51 271.07a2.63 2.63 0 0 1-1.22 3.18L221 293.45a2 2 0 0 1-2.94-.79 2.66 2.66 0 0 1 1.23-3.19l33.26-19.2a2 2 0 0 1 2.96.8ZM276.61 261.37l-13.1 7.56a2 2 0 0 1-2.95-.77 2.66 2.66 0 0 1 1.23-3.19l13-7.5a2.06 2.06 0 0 1 3 .75 2.54 2.54 0 0 1-1.18 3.15ZM182.61 325.19a2.48 2.48 0 0 1-1.12 3.13l-35.74 20.62a2.16 2.16 0 0 1-3.06-.71 2.4 2.4 0 0 1 1.08-3.1l35.81-20.67a2.11 2.11 0 0 1 3.03.73ZM232.48 296.4a2.48 2.48 0 0 1-1.12 3.13l-40.75 23.52a2.12 2.12 0 0 1-3-.73 2.45 2.45 0 0 1 1.12-3.12l40.75-23.53a2.12 2.12 0 0 1 3 .73ZM281.07 270.82l-40.6 23.44a2.11 2.11 0 0 1-3-.73 2.46 2.46 0 0 1 1.12-3.13l40.53-23.4a2.14 2.14 0 0 1 3.05.72 2.42 2.42 0 0 1-1.1 3.1ZM157.41 351.58a2.37 2.37 0 0 1-1 3.09l-5.88 3.33a2.26 2.26 0 0 1-3.13-.67 2.31 2.31 0 0 1 1-3.07l5.89-3.4a2.22 2.22 0 0 1 3.12.72ZM207.19 322.84a2.34 2.34 0 0 1-1.05 3.08l-40.6 23.45a2.22 2.22 0 0 1-3.1-.69 2.35 2.35 0 0 1 1.05-3.09l40.6-23.44a2.21 2.21 0 0 1 3.1.69ZM257 294.07a2.34 2.34 0 0 1-1.05 3.08l-40.66 23.48a2.21 2.21 0 0 1-3.1-.69 2.35 2.35 0 0 1 1.05-3.09l40.66-23.48a2.21 2.21 0 0 1 3.1.7ZM285.85 279.91l-20.68 11.94a2.22 2.22 0 0 1-3.1-.69 2.37 2.37 0 0 1 1.05-3.09l20.65-11.91a2.23 2.23 0 0 1 3.11.68 2.31 2.31 0 0 1-1.03 3.07ZM182.31 348.87a2.24 2.24 0 0 1-1 3l-25.74 14.86a2.35 2.35 0 0 1-3.19-.63 2.21 2.21 0 0 1 .95-3l25.79-14.89a2.32 2.32 0 0 1 3.19.66ZM232.17 320.08a2.26 2.26 0 0 1-1 3.05l-40.57 23.43a2.3 2.3 0 0 1-3.16-.65 2.27 2.27 0 0 1 1-3.05L229 319.44a2.32 2.32 0 0 1 3.17.64ZM290.91 288.65l-50.45 29.13a2.29 2.29 0 0 1-3.16-.66 2.26 2.26 0 0 1 1-3.05L288.7 285a2.34 2.34 0 0 1 3.18.64 2.23 2.23 0 0 1-.97 3.01ZM207.52 345.79a2.15 2.15 0 0 1-.91 3l-45.69 26.38a2.46 2.46 0 0 1-3.26-.6 2.12 2.12 0 0 1 .88-3l45.73-26.4a2.43 2.43 0 0 1 3.25.62ZM257.3 317.05a2.16 2.16 0 0 1-.91 3l-40.57 23.42a2.42 2.42 0 0 1-3.24-.61 2.14 2.14 0 0 1 .9-3l40.58-23.42a2.42 2.42 0 0 1 3.24.61ZM296.24 297.05l-30.64 17.68a2.41 2.41 0 0 1-3.23-.61 2.15 2.15 0 0 1 .91-3l30.61-17.67a2.43 2.43 0 0 1 3.25.61 2.14 2.14 0 0 1-.9 2.99Z" style="fill:#455a64;opacity:.4"/><path d="M271.14 241.51 211.34 276c-.3-.78-.57-1.57-.85-2.35-.08-.22-.16-.45-.23-.67l-.81-2.37c-.27-.8-.53-1.59-.78-2.4-4.12-12.93-7.11-27.06-9.5-43l59.73-34.46a250.82 250.82 0 0 0 8.17 38.25c.37 1.24.74 2.46 1.13 3.67.32 1 .64 2 1 3.05q.93 2.94 1.94 5.79Z" style="fill:#5eead4"/><path d="M271.14 241.51 211.34 276c-.3-.78-.57-1.57-.85-2.35-.08-.22-.16-.45-.23-.67l-.81-2.37c-.27-.8-.53-1.59-.78-2.4-4.12-12.93-7.11-27.06-9.5-43l59.73-34.46a250.82 250.82 0 0 0 8.17 38.25c.37 1.24.74 2.46 1.13 3.67.32 1 .64 2 1 3.05q.93 2.94 1.94 5.79Z" style="opacity:.5"/><path d="M271.14 241.51 211.34 276c-.3-.78-.57-1.57-.85-2.35-.08-.22-.16-.45-.23-.67l-.81-2.37c-.27-.8-.53-1.59-.78-2.4 2.23-9.3 9.84-40.21 9.84-40.21l33.42 18.83-6.82-6.83 5.39-17.52 16.57 6.52q.56 1.85 1.11 3.66c.33 1 .65 2 1 3.05q.95 2.95 1.96 5.8ZM238.64 209.83c2.22-1.29 4.43 0 5 2.94s-.67 6.28-2.89 7.56-4.57 0-5.16-2.91.83-6.3 3.05-7.59Z" style="fill:#5eead4"/><path d="M457 242.06c-16.32-6-42.35-6-58.13 0s-15.77 15.76 0 21.77 41.81 6 58.13 0 16.27-15.76 0-21.77Z" style="fill:#733232"/><path d="m470 222.28-83.72.09 6.29 98.63h.08c.4 3.59 3.75 7.14 10.15 9.88 13.64 5.85 36.12 5.85 50.23 0 6.61-2.75 10.08-6.29 10.49-9.88h.08Z" style="fill:#fafafa"/><path d="m386.23 222.37 1.29 20a37.38 37.38 0 0 0 7 3.75c18.11 7.5 48 7.49 66.69 0 .81-.33 1.49-.68 2.22-1a42.9 42.9 0 0 0 5.25-3l1.28-19.9Z" style="fill:#ebebeb"/><path d="M475.25 225.2v-15.08h-9.76a43.14 43.14 0 0 0-4.29-2c-18.73-7.5-48.58-7.5-66.69 0a44.92 44.92 0 0 0-4.1 2h-9.48v15.08c0 4.91 4.53 9.83 13.58 13.58 18.11 7.49 48 7.49 66.69 0 9.37-3.78 14.05-8.67 14.05-13.58Z" style="fill:#5eead4"/><path d="M475.25 225.2v-15.08h-9.76a43.14 43.14 0 0 0-4.29-2c-18.73-7.5-48.58-7.5-66.69 0a44.92 44.92 0 0 0-4.1 2h-9.48v15.08c0 4.91 4.53 9.83 13.58 13.58 18.11 7.49 48 7.49 66.69 0 9.37-3.78 14.05-8.67 14.05-13.58Z" style="opacity:.5"/><path d="M461.2 196.54c-18.73-7.49-48.58-7.49-66.69 0s-18.1 19.66 0 27.15 48 7.5 66.69 0 18.73-19.69 0-27.15Z" style="fill:#5eead4"/><path d="M461.2 196.54c-18.73-7.49-48.58-7.49-66.69 0s-18.1 19.66 0 27.15 48 7.5 66.69 0 18.73-19.69 0-27.15Z" style="opacity:.2"/><path d="M455.38 197.76c-15.43-5.92-40.05-5.92-55 0s-14.92 15.53 0 21.46 39.54 5.92 55 0 15.44-15.53 0-21.46Z" style="fill:#5eead4"/><path d="M455.38 197.76c-15.43-5.92-40.05-5.92-55 0s-14.92 15.53 0 21.46 39.54 5.92 55 0 15.44-15.53 0-21.46Z" style="opacity:.5"/><path d="m466.61 206.49-3.02-12.43h-71.01l-3.03 12.43h77.06z" style="fill:#5eead4"/><path d="m466.61 206.49-3.02-12.43h-71.01l-3.03 12.43h77.06z" style="opacity:.5"/><path d="M453.16 186.11c-14.18-5.15-36.79-5.15-50.49 0s-13.71 13.52 0 18.67 36.31 5.16 50.49 0 14.18-13.51 0-18.67Z" style="fill:#5eead4"/><path d="M453.16 186.11c-14.18-5.15-36.79-5.15-50.49 0s-13.71 13.52 0 18.67 36.31 5.16 50.49 0 14.18-13.51 0-18.67Z" style="opacity:.2"/><path d="M458.88 195.46c0 .2-.4.86-1.57 1.77a23 23 0 0 1-5.82 2.94c-6.26 2.26-14.92 3.58-23.75 3.58s-17.35-1.3-23.36-3.55a20.56 20.56 0 0 1-5.62-3c-1.15-.93-1.47-1.62-1.47-1.79 0-.35 1.23-2.53 7.09-4.74s14.53-3.56 23.36-3.56 17.49 1.3 23.75 3.59c5.89 2.16 7.36 4.3 7.39 4.76Z" style="fill:#5eead4"/><path d="M458.88 195.46c0 .2-.4.86-1.57 1.77a23 23 0 0 1-5.82 2.94c-6.26 2.26-14.92 3.58-23.75 3.58s-17.35-1.3-23.36-3.55a20.56 20.56 0 0 1-5.62-3c-1.15-.93-1.47-1.62-1.47-1.79 0-.35 1.23-2.53 7.09-4.74s14.53-3.56 23.36-3.56 17.49 1.3 23.75 3.59c5.89 2.16 7.36 4.3 7.39 4.76Z" style="opacity:.5"/><path d="M457.31 197.23a23 23 0 0 1-5.82 2.94c-6.26 2.26-14.92 3.58-23.75 3.58s-17.35-1.3-23.36-3.55a20.56 20.56 0 0 1-5.62-3 20 20 0 0 1 5.62-3c6-2.26 14.53-3.56 23.36-3.56s17.49 1.3 23.75 3.58a22.28 22.28 0 0 1 5.82 3.01Z" style="fill:#5eead4"/><path d="M443.1 197.55c2.06-1.17 4.58-1.65 5.61-1.07s.19 2-1.87 3.2-4.58 1.66-5.61 1.07-.23-2.03 1.87-3.2Z" style="opacity:.5"/><path d="M389.37 289.14c0 3.71 3.72 7.42 11.15 10.25 14.86 5.66 39.38 5.66 54.76 0 7.67-2.82 11.52-6.53 11.53-10.23l2.38-36.22c0 3.94-4.08 7.88-12.24 10.89-16.32 6-42.35 6-58.13 0-7.89-3-11.83-6.95-11.83-10.89Z" style="fill:#b16668"/><path d="M414.92 291.28c-1.38-1.86-2.14-4.14-3.26-6.15a18.2 18.2 0 0 0-9.47-8.34 1.18 1.18 0 0 0-1.47.54c-2.06 4.19-.8 10.06 3.46 14.32s10 5.53 14.22 3.56c.24-.11.3-.58.11-.69a11.79 11.79 0 0 1-3.59-3.24ZM404.46 275.65a19.66 19.66 0 0 1 6 3.67 18.08 18.08 0 0 1 4.33 5.91c1.59 3.38 3.1 5.47 5.43 7.21a1.16 1.16 0 0 0 1.63-.25c2.79-4.22 1.68-10.67-2.91-15.26-4.35-4.36-10.39-5.61-14.6-3.36a1.16 1.16 0 0 0 .12 2.08Z" style="fill:#733232"/></svg>