<svg xmlns="http://www.w3.org/2000/svg" viewBox="0 0 500 500"><path d="M89.92 407.24c90.13 47.08 236.26 47.08 326.39 0s90.13-123.43 0-170.51-236.26-47.09-326.4 0-90.13 123.42.01 170.51Z" style="fill:#fafafa"/><ellipse cx="184.59" cy="397.97" rx="28.03" ry="13.36" style="fill:#ebebeb"/><path d="m91.75 253.91 4.62-1.17a113 113 0 0 0 2.87-18.58c1.19-15-4.64-26.32-11.9-31-8.62-5.55-13.14-.48-12.62 3.51.55 4.21 5.1 10.16 7.27 14.27 3.14 5.95 7.9 14.97 9.76 32.97Z" style="fill:#5eead4"/><path d="m91.75 253.91 4.62-1.17a113 113 0 0 0 2.87-18.58c1.19-15-4.64-26.32-11.9-31-8.62-5.55-13.14-.48-12.62 3.51.55 4.21 5.1 10.16 7.27 14.27 3.14 5.95 7.9 14.97 9.76 32.97Z" style="opacity:.2"/><path d="M94 253.69h-.07a.34.34 0 0 1-.27-.4c5.52-26.69-5.82-45.72-12.83-49.53a.34.34 0 0 1-.13-.46.33.33 0 0 1 .46-.14c7.38 4 18.82 22.89 13.17 50.27a.35.35 0 0 1-.33.26Z" style="fill:#fff"/><path d="M91.75 253.91a38.52 38.52 0 0 0-1.91-14.78c-2.62-7.35-6.73-14.16-15-16.68s-14.7 3.46-10.63 8.94 19.22 8.89 22.17 26.08Z" style="fill:#5eead4"/><path d="M89.4 255.82a.35.35 0 0 1-.31-.37c1.24-13.84-8.1-27.57-20.38-30a.34.34 0 0 1-.27-.4.33.33 0 0 1 .4-.27c12.61 2.48 22.19 16.54 20.93 30.71a.33.33 0 0 1-.37.33Z" style="fill:#fff"/><path d="M391.22 365.6s1.57-14.84 10.82-24.81 19.14-9.88 23-6.3-.11 9.15-8.7 14.58c-7.36 4.65-17.09 15.2-20.08 22.32Z" style="fill:#5eead4"/><path d="M391.22 365.6s1.57-14.84 10.82-24.81 19.14-9.88 23-6.3-.11 9.15-8.7 14.58c-7.36 4.65-17.09 15.2-20.08 22.32Z" style="opacity:.2"/><path d="M393.35 368.4h-.09a.34.34 0 0 1-.26-.4c3.93-15.14 17.13-30.39 28.25-32.63a.34.34 0 1 1 .14.67c-10.89 2.2-23.85 17.22-27.73 32.14a.34.34 0 0 1-.31.22Z" style="fill:#fff"/><path d="M392.82 400.38s6.83 1.94 11.76-1.45c4.21-2.9 3.16-6 3.65-8.37s2.55-3.67 6-4.12c4.24-.55 8.2-1.22 8.94-5.7.66-3.95-5.86-6.08-3.92-9.94 1.47-2.91 4.77-4.85 7.49-7s1.1-6.85-5.4-6.86c-8.06 0-9.74 3-13.33 3.47s-5.6-1.6-9.53-1.08c-4.35.57-6.48 4.73-6.58 9.92Z" style="fill:#5eead4"/><path d="M392.37 385.57h-.11a.34.34 0 0 1-.21-.44c3.59-10.13 22.95-24.23 31.06-25.67a.34.34 0 0 1 .4.28.34.34 0 0 1-.28.4c-8 1.42-27 15.26-30.53 25.2a.36.36 0 0 1-.33.23Z" style="fill:#fff"/><path d="M418.83 379.63a.32.32 0 0 1-.16 0c-5-2.59-13.56-4.48-20.12-3.07a.35.35 0 0 1-.15-.68c6.72-1.44 15.44.49 20.59 3.14a.34.34 0 0 1 .15.46.37.37 0 0 1-.31.15ZM402 373a.34.34 0 0 1-.34-.34c0-6.05-2-9-2.05-9a.34.34 0 1 1 .56-.4c.09.12 2.19 3.13 2.18 9.42a.35.35 0 0 1-.35.32Z" style="fill:#fff"/><path d="m149.23 33.18.6-.35a3.83 3.83 0 0 1 3.46 0l98.09 56.64a3.83 3.83 0 0 1 1.73 3v136.71a3.85 3.85 0 0 1-1.73 3l-.6.34a3.77 3.77 0 0 1-3.46 0l-98.09-56.63a3.81 3.81 0 0 1-1.73-3V36.18a3.82 3.82 0 0 1 1.73-3Z" style="fill:#fafafa"/><path d="M253.11 160.82V92.47a3.45 3.45 0 0 0-.51-1.71L247 94v138.35l.31.17a3.77 3.77 0 0 0 3.46 0l.6-.34a3.85 3.85 0 0 0 1.73-3Z" style="fill:#e0e0e0"/><path d="m149.23 35.18 98.09 56.63a3.85 3.85 0 0 1 1.73 3v136.71c0 1.11-.78 1.56-1.73 1l-98.09-56.63a3.81 3.81 0 0 1-1.73-3V36.18c0-1.1.77-1.55 1.73-1Z" style="fill:#f5f5f5"/><path d="m161.41 51.6 73.72 42.56a3.81 3.81 0 0 1 1.73 3v5.38c0 1.1-.77 1.55-1.73 1L161.41 61a3.85 3.85 0 0 1-1.73-3v-5.4c0-1.11.78-1.6 1.73-1Z" style="fill:#e0e0e0"/><ellipse cx="169.84" cy="86.95" rx="8.29" ry="14.36" style="fill:#e0e0e0" transform="rotate(-30 169.823 86.944)"/><path d="M169.92 79c-2-1.14-3.56-.22-3.56 2.05a7.84 7.84 0 0 0 3.56 6.17c2 1.14 3.56.22 3.56-2a7.86 7.86 0 0 0-3.56-6.22ZM170.85 88.89l-2-1.17c-3.24-1.86-5.86-.35-5.86 3.38v.51a20.5 20.5 0 0 0 6.87 7.06c2.65 1.53 5 1.74 6.86.86V99a12.94 12.94 0 0 0-5.87-10.11Z" style="fill:#5eead4"/><path d="m161.85 103.45 16 9.23a4.65 4.65 0 0 1 2.16 3.6c0 1.29-1 1.78-2.16 1.09l-16-9.22a4.65 4.65 0 0 1-2.17-3.6c0-1.3.97-1.79 2.17-1.1ZM161.85 112.83l16 9.23a4.65 4.65 0 0 1 2.16 3.59c0 1.3-1 1.79-2.16 1.1l-16-9.23a4.64 4.64 0 0 1-2.17-3.6c0-1.29.97-1.78 2.17-1.09ZM161.85 122.2l16 9.23A4.65 4.65 0 0 1 180 135c0 1.29-1 1.78-2.16 1.09l-16-9.22a4.65 4.65 0 0 1-2.17-3.6c.01-1.27.98-1.76 2.18-1.07ZM161.85 131.58l16 9.23a4.65 4.65 0 0 1 2.15 3.59c0 1.3-1 1.79-2.16 1.1l-16-9.23a4.64 4.64 0 0 1-2.17-3.6c.01-1.29.98-1.78 2.18-1.09Z" style="fill:#e0e0e0"/><path d="m161.85 145.66 16 9.22a4.8 4.8 0 0 1 2.16 3.75v9.07c0 1.38-1 1.94-2.16 1.25l-16-9.22a4.78 4.78 0 0 1-2.17-3.75v-9.07c0-1.39.97-1.91 2.17-1.25ZM194.34 84.68 234.7 108a4.65 4.65 0 0 1 2.16 3.59c0 1.3-1 1.79-2.16 1.1l-40.36-23.3a4.65 4.65 0 0 1-2.16-3.59c0-1.32.97-1.8 2.16-1.12ZM194.34 94.06l40.36 23.3a4.65 4.65 0 0 1 2.16 3.59c0 1.3-1 1.79-2.16 1.1l-40.36-23.3a4.65 4.65 0 0 1-2.16-3.59c0-1.3.97-1.79 2.16-1.1ZM194.34 103.44l40.36 23.3a4.65 4.65 0 0 1 2.16 3.59c0 1.3-1 1.79-2.16 1.1l-40.36-23.3a4.65 4.65 0 0 1-2.16-3.59c0-1.3.97-1.79 2.16-1.1Z" style="fill:#5eead4"/><path d="m332.45 119.7 3.8-2.19a4.79 4.79 0 0 1 4.33 0l85 49.1a4.78 4.78 0 0 1 2.17 3.75v107.57a4.78 4.78 0 0 1-2.17 3.75l-3.79 2.19a4.79 4.79 0 0 1-4.33 0l-85.05-49.1a4.8 4.8 0 0 1-2.16-3.75V123.45a4.8 4.8 0 0 1 2.2-3.75Z" style="fill:#455a64"/><path d="M427.78 224.14v-53.78a4.37 4.37 0 0 0-.64-2.14l-11.55 6.67v107.88l1.9 1.1a4.79 4.79 0 0 0 4.33 0l3.79-2.19a4.78 4.78 0 0 0 2.17-3.75Z" style="fill:#263238"/><path d="m332.45 122.2 85 49.1a4.8 4.8 0 0 1 2.16 3.75v107.57c0 1.38-1 1.94-2.16 1.25l-85.05-49.1a4.8 4.8 0 0 1-2.16-3.75V123.45c.05-1.38 1.02-1.94 2.21-1.25Z" style="fill:#37474f"/><path d="m411.39 174.77-72.85-42.06c-1.2-.69-2.16-.13-2.16 1.25v81.78a4.8 4.8 0 0 0 2.16 3.75l72.85 42.06c1.2.69 2.17.13 2.17-1.25v-81.78a4.78 4.78 0 0 0-2.17-3.75Z" style="fill:#fff"/><path d="M353.24 151a15.51 15.51 0 0 1 7 12.15c0 4.48-3.14 6.29-7 4.05a15.49 15.49 0 0 1-7-12.15c-.01-4.49 3.13-6.3 7-4.05ZM371.46 200.76l-13-19.66c-2.11-3.18-5.75-3.35-8.14-.37L336.38 198v17.77a4.78 4.78 0 0 0 2.17 3.75l72.84 42c1.2.69 2.17.13 2.17-1.25v-46.1l-18.1-38.31c-1.63-3.45-4.69-3.69-6.82-.53Z" style="fill:#5eead4"/><path d="m350.87 362.36 23.83-13.76a9.56 9.56 0 0 0 4.33-7.5V205.69a9.58 9.58 0 0 0-4.33-7.5l-161.94-93.5a9.57 9.57 0 0 0-8.66 0l-23.84 13.76a9.58 9.58 0 0 0-4.33 7.5v135.41a9.58 9.58 0 0 0 4.33 7.5l162 93.5a9.57 9.57 0 0 0 8.61 0Z" style="fill:#455a64"/><path d="M379 205.69a8.9 8.9 0 0 0-1.26-4.27l-35.26 20.38v140.68a9.59 9.59 0 0 0 8.38-.12l23.85-13.77a9.55 9.55 0 0 0 4.29-7.49Z" style="fill:#37474f"/><path d="m342.21 217-161.95-93.5c-2.39-1.38-4.33-.26-4.33 2.5v135.36a9.58 9.58 0 0 0 4.33 7.5l162 93.5c2.39 1.38 4.33.26 4.33-2.5V224.45a9.58 9.58 0 0 0-4.38-7.45Z" style="fill:#37474f"/><path d="M356.42 208.75a9.58 9.58 0 0 1 4.33 7.5v140.4l4.06-2.34V213.9a9.58 9.58 0 0 0-4.33-7.5l-166.28-96-4.06 2.35Z" style="fill:#263238"/><path d="m360.48 206.4-166-95.84-4.19 2.27 166.14 95.92a8.83 8.83 0 0 1 3.06 3.23l4.06-2.34a8.78 8.78 0 0 0-3.07-3.24Z" style="fill:#37474f"/><path d="m335.31 184.83-2.86-1.65a4.79 4.79 0 0 0-4.33 0l-11 6.34-1.83-.55v2.34a1.52 1.52 0 0 0 .9 1.25l3.79 2.19a4.79 4.79 0 0 0 4.33 0l11.92-6.88a1.52 1.52 0 0 0 .89-1.25v-2.35Z" style="fill:#263238"/><path d="m336.25 183-3.8-2.19a4.79 4.79 0 0 0-4.33 0l-11.91 6.89a1.31 1.31 0 0 0 0 2.49l3.79 2.2a4.79 4.79 0 0 0 4.33 0l11.92-6.89a1.32 1.32 0 0 0 0-2.5Z" style="fill:#455a64"/><path d="M237.82 128.55 235 126.9a4.81 4.81 0 0 0-4.34 0l-11 6.34-1.83-.55V135a1.52 1.52 0 0 0 .9 1.25l3.79 2.19a4.79 4.79 0 0 0 4.33 0l11.92-6.88a1.5 1.5 0 0 0 .89-1.25V128Z" style="fill:#263238"/><path d="m238.76 126.75-3.8-2.2a4.79 4.79 0 0 0-4.33 0l-11.91 6.89a1.32 1.32 0 0 0 0 2.5l3.79 2.19a4.79 4.79 0 0 0 4.33 0l11.92-6.88a1.32 1.32 0 0 0 0-2.5Z" style="fill:#455a64"/><path d="M269.36 128v14.07l-8.12 4.69V125.3c0-1.11.77-1.55 1.73-1Z" style="fill:#263238"/><path d="M312 142.91v26.15l-6 3.49-4.06-2.35v-21.45a3.85 3.85 0 0 0-1.73-3L269.36 128l-6.36-3.7c-1-.55-1.73-.11-1.73 1v21.45l-4.07-2.35v-26.14a2 2 0 0 1 0-.34 3.85 3.85 0 0 1 1.71-2.66l2.57-1.49a3.83 3.83 0 0 1 3.46 0l45.28 26.14a3.84 3.84 0 0 1 1.78 3Z" style="fill:#455a64"/><path d="M305.92 146.4v26.15l-4.06-2.35v-21.45a3.85 3.85 0 0 0-1.73-3L269.36 128l-6.36-3.7c-1-.55-1.73-.11-1.73 1v21.45l-4.07-2.35v-26.14a2 2 0 0 1 0-.34c.15-.85.86-1.15 1.71-.66l45.28 26.14a3.86 3.86 0 0 1 1.73 3Z" style="fill:#37474f"/><path d="m366.85 409.4 4.06-2.35L366.85 290a4.81 4.81 0 0 0-2.17-3.75l-76.91-44.41a7.75 7.75 0 0 1-3-3.61l-2.43-7a7.61 7.61 0 0 0-3-3.58l-36.25-20.28c-1.2-.67-2.19-.1-2.19 1.28V334.2a4.82 4.82 0 0 0 2.17 3.75Z" style="fill:#5eead4"/><path d="m366.85 409.4 4.06-2.35L366.85 290a4.81 4.81 0 0 0-2.17-3.75l-76.91-44.41a7.75 7.75 0 0 1-3-3.61l-2.43-7a7.61 7.61 0 0 0-3-3.58l-36.25-20.28c-1.2-.67-2.19-.1-2.19 1.28V334.2a4.82 4.82 0 0 0 2.17 3.75Z" style="opacity:.2"/><path d="m307.65 211.06 85.9 49.6a3.81 3.81 0 0 1 1.73 3v141.4c0 1.11-.77 1.55-1.73 1l-85.9-49.59a3.84 3.84 0 0 1-1.73-3V212.06c0-1.06.77-1.55 1.73-1Z" style="fill:#fff"/><g style="opacity:.5"><path d="M394.33 406.8a2.09 2.09 0 0 1-1-.3l-85.9-49.6a4.32 4.32 0 0 1-2-3.43V212.06a1.54 1.54 0 0 1 2.48-1.43l85.9 49.59a4.34 4.34 0 0 1 2 3.44v141.4a1.72 1.72 0 0 1-.75 1.56 1.4 1.4 0 0 1-.73.18Zm-87.45-195.47a.46.46 0 0 0-.21 0 .8.8 0 0 0-.25.69v141.45a3.33 3.33 0 0 0 1.48 2.53l85.9 49.6a.77.77 0 0 0 .73.12.78.78 0 0 0 .25-.69V263.66a3.33 3.33 0 0 0-1.48-2.57l-85.9-49.59a1 1 0 0 0-.52-.17Z" style="fill:#e0e0e0"/></g><path d="m316.21 230.07 40.35 23.3a4.63 4.63 0 0 1 2.16 3.6c0 1.29-1 1.78-2.16 1.09l-40.35-23.29a4.65 4.65 0 0 1-2.17-3.6c-.04-1.3.96-1.79 2.17-1.1Z" style="fill:#37474f"/><path d="M316.21 244.15 385 283.86a4.64 4.64 0 0 1 2.17 3.59c0 1.3-1 1.79-2.16 1.1l-68.79-39.71a4.64 4.64 0 0 1-2.17-3.6c-.05-1.24.95-1.78 2.16-1.09ZM316.21 258.22 385 297.93a4.64 4.64 0 0 1 2.17 3.59c0 1.3-1 1.79-2.16 1.1l-68.79-39.71a4.64 4.64 0 0 1-2.17-3.6c-.05-1.31.95-1.78 2.16-1.09ZM316.21 272.29 385 312a4.64 4.64 0 0 1 2.17 3.6c0 1.29-1 1.78-2.16 1.09L316.21 277a4.64 4.64 0 0 1-2.17-3.59c-.04-1.32.96-1.81 2.17-1.12ZM316.21 286.36 385 326.07a4.64 4.64 0 0 1 2.17 3.6c0 1.29-1 1.78-2.16 1.09l-68.79-39.71a4.64 4.64 0 0 1-2.17-3.59c-.05-1.3.95-1.79 2.16-1.1ZM316.21 300.43 385 340.14a4.65 4.65 0 0 1 2.17 3.6c0 1.3-1 1.79-2.16 1.1l-68.79-39.72a4.64 4.64 0 0 1-2.17-3.59c-.05-1.3.95-1.79 2.16-1.1ZM316.21 314.51 385 354.22a4.64 4.64 0 0 1 2.17 3.59c0 1.3-1 1.79-2.16 1.1l-68.8-39.71a4.64 4.64 0 0 1-2.17-3.6c-.04-1.29.96-1.78 2.17-1.09ZM316.21 328.58 385 368.29a4.64 4.64 0 0 1 2.17 3.59c0 1.3-1 1.79-2.16 1.1l-68.79-39.71a4.64 4.64 0 0 1-2.17-3.6c-.05-1.29.95-1.78 2.16-1.09Z" style="fill:#e0e0e0"/><path d="m295.46 218.09 85.9 49.6a3.82 3.82 0 0 1 1.74 3v141.4c0 1.1-.78 1.55-1.74 1l-85.9-49.6a3.83 3.83 0 0 1-1.73-3v-141.4c0-1.09.78-1.55 1.73-1Z" style="fill:#fff"/><path d="M382.14 413.82a2.09 2.09 0 0 1-1-.3l-85.9-49.59a4.32 4.32 0 0 1-2-3.44v-141.4a1.55 1.55 0 0 1 2.48-1.43l85.9 49.59a4.31 4.31 0 0 1 2 3.44v141.4a1.7 1.7 0 0 1-.76 1.55 1.4 1.4 0 0 1-.72.18Zm-87.45-195.47a.39.39 0 0 0-.2.05.77.77 0 0 0-.26.69v141.4a3.33 3.33 0 0 0 1.48 2.57l85.9 49.6a.58.58 0 0 0 1-.57v-141.4a3.32 3.32 0 0 0-1.49-2.57l-85.9-49.6a1.09 1.09 0 0 0-.53-.17Z" style="fill:#e0e0e0"/><path d="m304 237.1 40.35 23.3a4.64 4.64 0 0 1 2.17 3.6c0 1.29-1 1.78-2.17 1.09L304 241.79a4.64 4.64 0 0 1-2.17-3.59c.02-1.3.99-1.79 2.17-1.1ZM304 251.17l68.79 39.71a4.67 4.67 0 0 1 2.16 3.6c0 1.3-1 1.79-2.16 1.1L304 255.86a4.64 4.64 0 0 1-2.17-3.59c.02-1.27.99-1.79 2.17-1.1ZM304 265.25 372.81 305a4.65 4.65 0 0 1 2.16 3.59c0 1.3-1 1.79-2.16 1.1L304 269.94a4.64 4.64 0 0 1-2.17-3.6c.02-1.29.99-1.78 2.17-1.09ZM304 279.32 372.81 319a4.65 4.65 0 0 1 2.16 3.59c0 1.3-1 1.79-2.16 1.1L304 284a4.64 4.64 0 0 1-2.17-3.6c.02-1.28.99-1.77 2.17-1.08ZM304 293.39l68.79 39.71a4.65 4.65 0 0 1 2.16 3.6c0 1.29-1 1.78-2.16 1.09L304 298.08a4.64 4.64 0 0 1-2.17-3.59c.02-1.3.99-1.79 2.17-1.1ZM304 307.46l68.79 39.71a4.65 4.65 0 0 1 2.16 3.6c0 1.29-1 1.78-2.16 1.09L304 312.15a4.64 4.64 0 0 1-2.17-3.59c.02-1.3.99-1.79 2.17-1.1ZM304 321.53l68.79 39.71a4.65 4.65 0 0 1 2.16 3.6c0 1.3-1 1.79-2.16 1.1L304 326.22a4.64 4.64 0 0 1-2.17-3.59c.02-1.3.99-1.79 2.17-1.1ZM304 335.61l68.79 39.71a4.65 4.65 0 0 1 2.16 3.59c0 1.3-1 1.79-2.16 1.1L304 340.3a4.64 4.64 0 0 1-2.17-3.6c.02-1.29.99-1.78 2.17-1.09Z" style="fill:#e0e0e0"/><path d="M366.85 409.4 347 301.63a6.2 6.2 0 0 0-2.62-3.71l-121.59-70.2c-1.19-.69-2-.14-1.71 1.21l19.4 105.31a6.2 6.2 0 0 0 2.62 3.71Z" style="fill:#5eead4"/><path d="M216.55 278.22v70a4.78 4.78 0 0 0 2.17 3.75l48.47 28a4.07 4.07 0 0 0 6.23-3.6v-70.01a4.8 4.8 0 0 0-2.16-3.75l-48.48-28a4.07 4.07 0 0 0-6.23 3.59Z" style="fill:#455a64"/><path d="M273.42 341.39v-35a4.43 4.43 0 0 0-.63-2.13l-6.1 3.52v72l.5.29a4.64 4.64 0 0 0 4.2.07 4.63 4.63 0 0 0 2-3.67Z" style="fill:#263238"/><path d="m218.72 277 48.47 28a4.78 4.78 0 0 1 2.17 3.75v70.05c0 1.38-1 1.94-2.17 1.25l-48.47-28a4.78 4.78 0 0 1-2.17-3.75v-70c0-1.46.97-2.02 2.17-1.3Z" style="fill:#37474f"/><path d="m222.78 284 40.35 23.29a4.8 4.8 0 0 1 2.17 3.75v51.29c0 1.38-1 1.94-2.17 1.25l-40.35-23.3a4.78 4.78 0 0 1-2.17-3.75v-51.27c0-1.38.97-1.94 2.17-1.26Z" style="fill:#fff"/><path d="M230.38 296a10.6 10.6 0 0 1 4.79 8.31c0 3.06-2.14 4.3-4.79 2.77a10.61 10.61 0 0 1-4.8-8.31c0-3.08 2.15-4.32 4.8-2.77ZM250.87 314.21l-10 14.7-7.55-11.38a2.75 2.75 0 0 0-4.72-.22l-8 10v9.22a4.78 4.78 0 0 0 2.17 3.75l40.35 23.3c1.2.69 2.17.13 2.17-1.25V336.7l-10.48-22.18c-.93-2-2.7-2.14-3.94-.31Z" style="fill:#5eead4"/><path d="m250.87 314.21-10 14.7-7.55-11.38a2.75 2.75 0 0 0-4.72-.22l-8 10v9.22a4.78 4.78 0 0 0 2.17 3.75l40.35 23.3c1.2.69 2.17.13 2.17-1.25V336.7l-10.48-22.18c-.93-2-2.7-2.14-3.94-.31Z" style="opacity:.2"/><path d="M63.92 265.34A105.6 105.6 0 0 0 115 174.89v-35.52c0-1.1.78-1.55 1.73-1l90 51.94a3.85 3.85 0 0 1 1.73 3v35.52A105.61 105.61 0 0 1 157.73 319a4.14 4.14 0 0 1-4.23 0l-89.57-51.64a1.07 1.07 0 0 1-.01-2.02Z" style="fill:#fff"/><path d="M155.61 320.14a4.65 4.65 0 0 1-2.36-.64l-89.57-51.71a1.56 1.56 0 0 1 0-2.88 105.65 105.65 0 0 0 50.84-90v-35.54a1.71 1.71 0 0 1 .76-1.55 1.68 1.68 0 0 1 1.72.12l90 51.94a4.32 4.32 0 0 1 2 3.43v35.52a106.72 106.72 0 0 1-51 90.64 4.51 4.51 0 0 1-2.39.67Zm-91.43-54.37c-.3.18-.47.39-.47.59s.17.39.47.56l89.57 51.72a3.67 3.67 0 0 0 3.72 0 105.72 105.72 0 0 0 50.46-89.79v-35.54a3.35 3.35 0 0 0-1.48-2.57l-90-51.94a.78.78 0 0 0-.72-.12.77.77 0 0 0-.26.69v35.52a106.7 106.7 0 0 1-51.32 90.88Z" style="fill:#e0e0e0"/><path d="m170 183.18 24.11 13.92a4.65 4.65 0 0 1 2.16 3.59c0 1.3-1 1.79-2.16 1.1L170 187.87a4.65 4.65 0 0 1-2.16-3.6c-.03-1.27.94-1.78 2.16-1.09ZM155.62 196c0 1.29-1 1.78-2.17 1.09l-24.1-13.91a4.65 4.65 0 0 1-2.16-3.59c0-1.3 1-1.79 2.16-1.1l24.1 13.91a4.64 4.64 0 0 1 2.17 3.6ZM195.06 237.52c-.18 1.19-1.32 1.59-2.52.9l-64.71-37.36a3.7 3.7 0 0 1-1.82-3.41c.18-1.19 1.27-1.6 2.46-.91l64.73 37.37a3.73 3.73 0 0 1 1.86 3.41ZM192.39 250.06c-.32 1.11-1.56 1.45-2.76.76l-64.71-37.37a3.13 3.13 0 0 1-1.58-3.26c.31-1.12 1.51-1.47 2.7-.78l64.72 37.37a3.18 3.18 0 0 1 1.63 3.28ZM188.36 261.8c-.43 1.05-1.76 1.33-3 .64l-64.72-37.36a2.69 2.69 0 0 1-1.36-3.14 1.93 1.93 0 0 1 2.91-.66L187 258.65a2.73 2.73 0 0 1 1.36 3.15ZM183.08 272.83a2.28 2.28 0 0 1-3.17.51L115.2 236a2.34 2.34 0 0 1-1.16-3 2.22 2.22 0 0 1 3.12-.54l64.72 37.36a2.37 2.37 0 0 1 1.2 3.01ZM145.71 270a2.72 2.72 0 0 1-3.43.36L106 249.43a2 2 0 0 1-.89-2.86 2.68 2.68 0 0 1 3.4-.39l36.29 21c1.2.65 1.61 1.95.91 2.82Z" style="fill:#e0e0e0"/><path d="M132.46 289.41s-19 12.54-41.83 13.41c4.65 2.69 15.14 3.8 23.24 2.69 0 0-1.13 4.71-9.3 10.73 0 0 13.3 3.59 37.19-21.47Z" style="fill:#5eead4"/><path d="M152.56 294.12c-4.07 4.14-12.28 4.49-17.89 1.25s-6.49-8.83-2.42-13 11.53-5.22 17.14-2 7.24 9.63 3.17 13.75Z" style="fill:#5eead4"/><path d="M152.56 294.12c-4.07 4.14-12.28 4.49-17.89 1.25s-6.49-8.83-2.42-13 11.53-5.22 17.14-2 7.24 9.63 3.17 13.75Z" style="opacity:.2"/><path d="M152.56 292.87c-4.07 4.14-12.28 4.48-17.89 1.25s-6.49-8.84-2.42-13 11.53-5.23 17.14-2 7.24 9.61 3.17 13.75Z" style="fill:#5eead4"/><path d="M143.13 293.29a14.14 14.14 0 0 1-7-1.77c-2-1.15-3.2-2.65-3.41-4.24a4.93 4.93 0 0 1 1.62-4 11 11 0 0 1 7.77-3 11.42 11.42 0 0 1 5.74 1.49 7.4 7.4 0 0 1 3.89 5.12 4.51 4.51 0 0 1-1.36 3.89 10.23 10.23 0 0 1-7.25 2.51Z" style="fill:#5eead4"/><path d="M143.13 293.29a14.14 14.14 0 0 1-7-1.77c-2-1.15-3.2-2.65-3.41-4.24a4.93 4.93 0 0 1 1.62-4 11 11 0 0 1 7.77-3 11.42 11.42 0 0 1 5.74 1.49 7.4 7.4 0 0 1 3.89 5.12 4.51 4.51 0 0 1-1.36 3.89 10.23 10.23 0 0 1-7.25 2.51Z" style="opacity:.30000000000000004"/><path d="M147.89 283a11.52 11.52 0 0 0-5.74-1.49 11 11 0 0 0-7.77 3 5.63 5.63 0 0 0-1.6 2.88 6.29 6.29 0 0 0 3.39 4.13 14.14 14.14 0 0 0 7 1.77 10.23 10.23 0 0 0 7.29-2.52 4.65 4.65 0 0 0 1.36-2.66 7.45 7.45 0 0 0-3.93-5.11Z" style="fill:#5eead4"/><path d="M147.89 283a11.52 11.52 0 0 0-5.74-1.49 11 11 0 0 0-7.77 3 5.63 5.63 0 0 0-1.6 2.88 6.29 6.29 0 0 0 3.39 4.13 14.14 14.14 0 0 0 7 1.77 10.23 10.23 0 0 0 7.29-2.52 4.65 4.65 0 0 0 1.36-2.66 7.45 7.45 0 0 0-3.93-5.11Z" style="opacity:.2"/></svg>