<svg xmlns="http://www.w3.org/2000/svg" viewBox="0 0 500 500"><path d="M441.4 270.76c2-26.75-4.24-54.7-12.64-79.6-12.47-37-36.67-74.94-77.44-83.69-23.51-5-47.43.36-67.58 13-19.39 12.17-34.5 27.88-58.33 30.93-24.1 3.08-48.83 1.84-73.06 1.84-62.29 0-112.85 65-100.21 132.71S124.36 400.6 174.92 400.6c45.43 0 82.8-27.07 126-34.34 21.4-3.6 42.88.66 64.06-4.74 24.61-6.28 47.75-21.26 61.39-42.95 9.24-14.77 13.76-31.06 15.03-47.81Z" style="fill:#5eead4"/><path d="M441.4 270.76c2-26.75-4.24-54.7-12.64-79.6-12.47-37-36.67-74.94-77.44-83.69-23.51-5-47.43.36-67.58 13-19.39 12.17-34.5 27.88-58.33 30.93-24.1 3.08-48.83 1.84-73.06 1.84-62.29 0-112.85 65-100.21 132.71S124.36 400.6 174.92 400.6c45.43 0 82.8-27.07 126-34.34 21.4-3.6 42.88.66 64.06-4.74 24.61-6.28 47.75-21.26 61.39-42.95 9.24-14.77 13.76-31.06 15.03-47.81Z" style="fill:#fff;opacity:.7000000000000001"/><ellipse cx="246.69" cy="417.76" rx="194.55" ry="5.42" style="fill:#2e353a"/><path d="M345.25 412.82h-18V88.44l18 20.93v303.45z" style="fill:none;stroke:#2e353a;stroke-linecap:round;stroke-linejoin:round"/><path d="M327.42 336.44h17.66l-17.66-17.07h17.66l-17.66 17.07zM327.42 318.94h17.66l-17.66-17.07h17.66l-17.66 17.07zM327.42 371.29h17.66l-17.66-17.07h17.66l-17.66 17.07zM327.42 353.79h17.66l-17.66-17.07h17.66l-17.66 17.07zM327.42 301.44h17.66l-17.66-17.07h17.66l-17.66 17.07zM327.42 283.94h17.66l-17.66-17.07h17.66l-17.66 17.07zM327.42 266.44h17.66l-17.66-17.07h17.66l-17.66 17.07zM327.42 248.94h17.66l-17.66-17.07h17.66l-17.66 17.07zM327.42 231.44h17.66l-17.66-17.07h17.66l-17.66 17.07zM327.42 213.94h17.66l-17.66-17.07h17.66l-17.66 17.07zM327.42 196.44h17.66l-17.66-17.07h17.66l-17.66 17.07zM327.42 178.94h17.66l-17.66-17.07h17.66l-17.66 17.07zM327.42 161.44h17.66l-17.66-17.07h17.66l-17.66 17.07zM327.42 143.94h17.66l-17.66-17.07h17.66l-17.66 17.07zM327.42 126.44h17.66l-17.66-17.07h17.66l-17.66 17.07zM428.81 126.91l-8.72-5.49h-62.22l-7.6 5.49h78.54z" style="fill:none;stroke:#2e353a;stroke-linecap:round;stroke-linejoin:round"/><path d="M278.25 126.44h152v4h-152z" style="fill:#2e353a;stroke:#2e353a;stroke-linecap:round;stroke-linejoin:round"/><path d="m420.09 121.42-92.84-32.98 30.62 32.98M327.25 88.44l-49 38" style="fill:none;stroke:#2e353a;stroke-linecap:round;stroke-linejoin:round"/><path d="M320.75 134.94h37.5v24h-37.5zM320.75 389.3h37.5v24h-37.5z" style="fill:#2e353a;stroke:#2e353a;stroke-linecap:round;stroke-linejoin:round"/><path d="M328.56 139.94h21.87v7h-21.87zM430.25 130.44v43.12" style="fill:#fff;stroke:#2e353a;stroke-linecap:round;stroke-linejoin:round"/><path d="M424.85 188.28h11.11v12.59h-11.11z" style="fill:#2e353a;stroke:#2e353a;stroke-linecap:round;stroke-linejoin:round"/><path d="m424.85 188.28 5.55-15.54 5.56 15.54" style="fill:none;stroke:#2e353a;stroke-linecap:round;stroke-linejoin:round"/><path d="M282.17 386.24V364h-65.55v22.26a32.21 32.21 0 0 1-7 20l-2.87 3.62H292l-2.88-3.62a32.26 32.26 0 0 1-6.95-20.02Z" style="fill:#fff;stroke:#2e353a;stroke-linecap:round;stroke-linejoin:round;stroke-width:1.0954300000000001px"/><path d="M212.59 401.83h73.61a32.18 32.18 0 0 1-4-15.59V364h-65.58v22.26a32.18 32.18 0 0 1-4.03 15.57Z" style="fill:#5eead4;mix-blend-mode:multiply"/><path d="M216.62 367.33h65.55v9.4h-65.55z" style="fill:#2e353a;stroke:#2e353a;stroke-linecap:round;stroke-linejoin:round;stroke-width:1.0954300000000001px"/><rect width="263.47" height="197.6" x="117.66" y="173.4" rx="9.29" style="fill:#2e353a;stroke:#2e353a;stroke-linecap:round;stroke-linejoin:round;stroke-width:1.0954300000000001px"/><path d="M117.66 340.29h263.47v21.42a9.29 9.29 0 0 1-9.29 9.29H127a9.29 9.29 0 0 1-9.29-9.29v-21.42h0Z" style="fill:#fff;stroke:#2e353a;stroke-linecap:round;stroke-linejoin:round;stroke-width:1.0954300000000001px"/><path d="M130.91 185.7h236.96v139.6H130.91z" style="fill:#5eead4;stroke:#2e353a;stroke-linecap:round;stroke-linejoin:round;stroke-width:1.0954300000000001px"/><path d="M254.25 355.65a4.86 4.86 0 1 0-4.86 4.85 4.85 4.85 0 0 0 4.86-4.85Z" style="fill:#2e353a;stroke:#2e353a;stroke-linecap:round;stroke-linejoin:round;stroke-width:1.0954300000000001px"/><path d="M206.78 409.87h85.24v3.97h-85.24z" style="fill:#fff;stroke:#2e353a;stroke-linecap:round;stroke-linejoin:round;stroke-width:1.0954300000000001px"/><path d="M326.51 220.68a23.72 23.72 0 0 0 6.49-21.32l-14.87 14.87a4.51 4.51 0 0 1-6.36 0l-12.36-12.36a4.5 4.5 0 0 1 0-6.37l14.86-14.86a23.71 23.71 0 0 0-26.64 31.87L249.26 250l-3.7-3.71 6-6a1.67 1.67 0 0 0 0-2.34l-4.68-4.68a1.65 1.65 0 0 0-2.33 0l-2.34 2.34-5.07-5.06 1.95-1.95a2.21 2.21 0 0 0 0-3.12l-41.87-41.87a10.74 10.74 0 0 0-15.2 0l-4.28 4.28a10.73 10.73 0 0 0 0 15.19l41.87 41.88a2.21 2.21 0 0 0 3.12 0l1.95-1.95 5.06 5.07-2.33 2.33a1.65 1.65 0 0 0 0 2.34l4.67 4.68a1.67 1.67 0 0 0 2.34 0l6-6 3.64 3.64-31.82 31a23.72 23.72 0 0 0-31.88 26.64l14.87-14.86a4.5 4.5 0 0 1 6.37 0l12.4 12.28a4.5 4.5 0 0 1 0 6.37l-14.86 14.86a23.72 23.72 0 0 0 26.65-31.87l31.82-31L301 311.83a8.89 8.89 0 0 0 2 9.5l10.47 10.47 12.56-12.57-10.47-10.46a8.89 8.89 0 0 0-9.5-2l-43.32-43.32L301.15 226a23.72 23.72 0 0 0 25.36-5.32Z" style="fill:#2e353a;stroke:#2e353a;stroke-linecap:round;stroke-linejoin:round;stroke-width:1.0954300000000001px"/><path d="m223.15 294.16 75.33-73.49A23.71 23.71 0 0 0 330.35 194l-14.86 14.86a4.5 4.5 0 0 1-6.37 0l-12.36-12.36a4.49 4.49 0 0 1 0-6.36l14.86-14.87a23.71 23.71 0 0 0-26.62 31.9l-75.33 73.49a23.71 23.71 0 0 0-31.87 26.64l14.86-14.86a4.5 4.5 0 0 1 6.37 0l12.36 12.36a4.49 4.49 0 0 1 0 6.36L196.5 326a23.72 23.72 0 0 0 26.65-31.87Z" style="fill:#fff;stroke:#2e353a;stroke-miterlimit:10"/><path d="M217.35 286.45a3.08 3.08 0 0 1 0-4.35l67.73-65.89a3.09 3.09 0 0 1 4.36 0 3.09 3.09 0 0 1 0 4.36l-67.73 65.88a3.09 3.09 0 0 1-4.36 0Z" style="fill:#fff;stroke:#2e353a;stroke-miterlimit:10"/><path d="M267.85 222.86h7.16v103.31h-7.16z" style="fill:#fff;stroke:#2e353a;stroke-miterlimit:10" transform="rotate(-45 271.426 274.512)"/><path d="m323.38 313.9-12.56 12.56L300.35 316a8.89 8.89 0 0 1 0-12.57 8.88 8.88 0 0 1 12.56 0Z" style="fill:#fff;stroke:#2e353a;stroke-miterlimit:10"/><path d="M220.64 225.37h17.63v14.32h-17.63z" style="fill:#fff;stroke:#2e353a;stroke-miterlimit:10" transform="rotate(-45 229.46 232.535)"/><path d="M199.74 169.77h6.06a10.74 10.74 0 0 1 10.74 10.74v59.22a2.2 2.2 0 0 1-2.2 2.2H191.2a2.2 2.2 0 0 1-2.2-2.2v-59.22a10.74 10.74 0 0 1 10.74-10.74Z" style="fill:#fff;stroke:#2e353a;stroke-miterlimit:10" transform="rotate(-45 202.766 205.851)"/><rect width="27.54" height="9.92" x="223.08" y="234.98" rx="1.65" style="fill:#fff;stroke:#2e353a;stroke-miterlimit:10" transform="rotate(-45 236.857 239.94)"/><path d="m222.44 233.32-3.44 3.45-41.12-41.12a2.44 2.44 0 0 1 0-3.45 2.43 2.43 0 0 1 3.45 0ZM228.31 227.45l-3.46 3.45-41.12-41.12a2.44 2.44 0 0 1 0-3.45 2.43 2.43 0 0 1 3.45 0ZM234.18 221.58l-3.46 3.42-41.12-41.09a2.44 2.44 0 0 1 0-3.45 2.43 2.43 0 0 1 3.45 0ZM371.82 415.07h-3.33l-21.53-176.66h3.34l21.52 176.66zM397.82 415.07h-3.33l-21.53-176.66h3.34l21.52 176.66z" style="fill:#fff;stroke:#2e353a;stroke-miterlimit:10"/><path d="M376.51 253.05h-25.99l-.67-5.45h26l.66 5.45zM378.96 273.17h-25.99l-.66-5.45h25.99l.66 5.45zM381.42 293.29h-26l-.66-5.45h25.99l.67 5.45zM383.87 313.42h-25.99l-.67-5.45h25.99l.67 5.45zM386.32 333.54h-25.99l-.67-5.45h25.99l.67 5.45zM388.77 353.66h-25.99l-.66-5.45h25.99l.66 5.45zM391.22 373.79h-25.99l-.66-5.45h25.99l.66 5.45zM393.68 393.91h-26l-.66-5.45h25.99l.67 5.45z" style="fill:#fff;stroke:#2e353a;stroke-miterlimit:10"/><path d="M350.12 249.74h3.4M350.92 251.34h6.6M376.11 251.34h-4.8M378.51 270.73h-4.4M353.32 271.73h10.2M355.12 290.52h8.8M355.52 292.12h4.8M383.7 310.31h-5.39M383.31 311.91h-9M391.14 371.74h-8.25M364.89 370.24h5M381.64 371.74h-6.5M367.39 390.99h7M368.89 392.74h8M360.89 331.74h2.25M385.39 331.24h-8.25" style="fill:none;stroke:#2e353a;stroke-miterlimit:10;stroke-width:.5px"/><path d="m176.97 309.44-3.96 5.16-86.14-67.25 3.97-5.16 86.13 67.25z" style="fill:#2e353a;stroke:#2e353a;stroke-linecap:round;stroke-linejoin:round;stroke-width:1.0954300000000001px"/><path d="m86.87 309.44 3.97 5.16 86.13-67.25-3.96-5.16-86.14 67.25zM176.97 384.98l-2.45 6.65-87.65-68.74 2.51-6.71 87.59 68.8z" style="fill:#2e353a;stroke:#2e353a;stroke-linecap:round;stroke-linejoin:round;stroke-width:1.0954300000000001px"/><path d="m86.87 384.98.6 7.8 89.5-69.89-3.96-5.15-86.14 67.24z" style="fill:#2e353a;stroke:#2e353a;stroke-linecap:round;stroke-linejoin:round;stroke-width:1.0954300000000001px"/><path d="M85.4 241.48h3.5v173.6h-3.5zM173.95 241.48h3.5v173.6h-3.5z" style="fill:#2e353a;stroke:#2e353a;stroke-linecap:round;stroke-linejoin:round;stroke-width:1.0954300000000001px"/><path d="m160.12 309.44-3.97 5.16-86.13-67.25 3.96-5.16 86.14 67.25z" style="fill:#fff;stroke:#2e353a;stroke-linecap:round;stroke-linejoin:round;stroke-width:1.0954300000000001px"/><path d="m70.02 309.44 3.96 5.16 86.14-67.25-3.97-5.16-86.13 67.25zM160.12 384.98l-2.46 6.65-87.64-68.74 1.26-6.71 88.84 68.8z" style="fill:#fff;stroke:#2e353a;stroke-linecap:round;stroke-linejoin:round;stroke-width:1.0954300000000001px"/><path d="m70.02 384.98.6 7.8 89.5-69.89-3.97-5.15-86.13 67.24z" style="fill:#fff;stroke:#2e353a;stroke-linecap:round;stroke-linejoin:round;stroke-width:1.0954300000000001px"/><path d="M68.54 241.48h3.5v173.6h-3.5zM157.09 241.48h3.5v173.6h-3.5z" style="fill:#fff;stroke:#2e353a;stroke-linecap:round;stroke-linejoin:round;stroke-width:1.0954300000000001px"/><path d="M64.04 239.87H165.1v5.5H64.04z" style="fill:#fff;stroke:#2e353a;stroke-linecap:round;stroke-linejoin:round;stroke-width:1.0954300000000001px"/><path d="M152.62 239.87h28.05v5.5h-28.05z" style="fill:#2e353a;stroke:#2e353a;stroke-linecap:round;stroke-linejoin:round;stroke-width:1.0954300000000001px"/><path d="M64.04 311.91H165.1v5.5H64.04z" style="fill:#fff;stroke:#2e353a;stroke-linecap:round;stroke-linejoin:round;stroke-width:1.0954300000000001px"/><path d="M152.62 311.91h28.05v5.5h-28.05z" style="fill:#2e353a;stroke:#2e353a;stroke-linecap:round;stroke-linejoin:round;stroke-width:1.0954300000000001px"/><path d="M291.03 415.07h-7.91l10.55-61.81h7.92l-10.56 61.81z" style="fill:#2e353a;stroke:#2e353a;stroke-miterlimit:10;stroke-width:.9727319999999999px"/><path d="M306.86 415.07h7.92l-10.56-61.81h-7.91l10.55 61.81z" style="fill:#fff;stroke:#2e353a;stroke-miterlimit:10;stroke-width:.9727319999999999px"/><path d="M403.35 415.07h-7.91l10.55-61.81h7.91l-10.55 61.81z" style="fill:#2e353a;stroke:#2e353a;stroke-miterlimit:10;stroke-width:.9727319999999999px"/><path d="M419.18 415.07h7.92l-10.56-61.81h-7.91l10.55 61.81z" style="fill:#fff;stroke:#2e353a;stroke-miterlimit:10;stroke-width:.9727319999999999px"/><path d="M273.75 335.39h150.97v20.97H273.75z" style="fill:#5eead4;stroke:#2e353a;stroke-miterlimit:10;stroke-width:.9727319999999999px"/><path d="M277.43 335.39H428.4v20.97H277.43z" style="fill:#5eead4;stroke:#2e353a;stroke-miterlimit:10;stroke-width:.9727319999999999px"/><path d="M279.9 356.36h12.81l6.62-20.97h-12.81l-6.62 20.97zM330.62 335.39H317.8l-6.62 20.97H324l6.62-20.97zM424.47 335.39h-12.82l-6.62 20.97h12.82l6.62-20.97zM393.18 335.39h-12.81l-6.62 20.97h12.81l6.62-20.97zM361.9 335.39h-12.82l-6.62 20.97h12.82l6.62-20.97z" style="fill:#2e353a"/><path d="M427.57 344.7h-24.98M427.13 348.2h-3.94M276.79 347.33h24.98M277.22 343.38h31.56" style="fill:none;stroke:#2e353a;stroke-miterlimit:10"/></svg>