<svg xmlns="http://www.w3.org/2000/svg" viewBox="0 0 500 500"><path d="M273.59 16.87c43.48 8.75 92.89 32.93 113.09 74.87 30.53 63.36 85.44 62.72 99.55 182.71a244 244 0 0 1 .7 52.75 205.25 205.25 0 0 1-4.18 25.52C465.69 426.87 409.44 473.13 345 486.55c-84.78 17.66-135-35.42-165.08-70.34S50 349.4 35.2 231.55a235.7 235.7 0 0 1-.75-54.21c4.36-41.15 21.55-85 52.33-113.85q3.47-3.24 7.15-6.28c47.9-39.65 120.38-52.27 179.66-40.34Z" style="fill:#5eead4"/><path d="M273.59 16.87c43.48 8.75 92.89 32.93 113.09 74.87 30.53 63.36 85.44 62.72 99.55 182.71a244 244 0 0 1 .7 52.75 205.25 205.25 0 0 1-4.18 25.52C465.69 426.87 409.44 473.13 345 486.55c-84.78 17.66-135-35.42-165.08-70.34S50 349.4 35.2 231.55a235.7 235.7 0 0 1-.75-54.21c4.36-41.15 21.55-85 52.33-113.85q3.47-3.24 7.15-6.28c47.9-39.65 120.38-52.27 179.66-40.34Z" style="fill:#fff;opacity:.7000000000000001"/><path d="M493.53 312.37 27.21 265.43" style="fill:none;stroke:#263238;stroke-linecap:round;stroke-linejoin:round"/><path d="M79.78 159.86c7.15-2.9 21.22-7.37 22.79-4.69s7.14 8 7.14 8 3.13-8.93 5.81-9.38 14.07-.67 16.53 0-6.48 6.92-14.07 11.62a38.5 38.5 0 0 1-5.09 2.64 42.46 42.46 0 0 1 .77 12.24c-.71 6.21-.82 22.93 2.19 33.46 3.3 11.55 8.28 50.09 6.07 63.33l-2.52-.42c2.16-13-2.75-50.83-6-62.21-3.11-10.87-3-28.07-2.27-34.45a39.74 39.74 0 0 0-.66-11c-3.72 1.31-6.63 1.8-9 3.34a18.55 18.55 0 0 0-5.14 4.47s-.45-2.68-1.56-2.46-16.53 3.8-19.21 3.35-2.93-14.94 4.22-17.84Z" style="fill:#263238"/><path d="M129.06 272.7c.06-.3 5.83-29.17 7.6-38.9.9-5 2.14-18.39 3.33-31.38 1.17-12.65 2.37-25.72 3.14-29.34a24.4 24.4 0 0 1 5.68-11.2l-1.8-1.8a26.73 26.73 0 0 0-6.38 12.47c-.79 3.76-1.95 16.33-3.18 29.63-1.19 12.94-2.42 26.31-3.3 31.17-1.77 9.7-7.53 38.55-7.59 38.84ZM121.39 271.59l2.55-.08c0-.07-.22-7.47-.67-13.9-.43-6.23-.24-69.14 0-101.31.23-28.94.23-67.09.23-67.47H121c0 .38 0 38.52-.23 67.45-.2 27.32-.45 94.81 0 101.51.4 6.38.62 13.73.62 13.8Z" style="fill:#263238;stroke:#263238;stroke-linecap:round;stroke-linejoin:round"/><path d="m119.85 271.1 2.51-.44c-2-11.4-12.49-51.56-26.54-73.29-14.16-21.9-26.07-37.68-26.19-37.83l-2 1.54c.11.15 12 15.86 26.08 37.67 13.81 21.41 24.14 61.09 26.14 72.35Z" style="fill:#263238;stroke:#263238;stroke-linecap:round;stroke-linejoin:round"/><path d="M67.47 151.79a16.83 16.83 0 0 1 9.46-13.12c8.85-4.27 13.73-5.49 14.95 6.1a102.22 102.22 0 0 1-.3 22.27s-6.72-11.89-11.9-13.42-8.85 2.44-6.1 4 11.59 7 14.64 9.15 2.44 3 .31 7-6.41 14-6.41 14-4-17.39-5.8-20.44-8.24 0-6.1 5.19 7.93 18.91 7.93 18.91-7.93 8.55-11.9 11-7 11.29-7 11.29-2.75-2.75-10.07-5.5-17.7-7.32-17.09-10.37 3.36-6.71 9.15-14.34 14.65-15 11-15.25-23.19 8.84-25 13.11.61 12.51.61 12.51S22 186 22 181.69a14.39 14.39 0 0 1 2.44-7.63s12.51-9.46 17.7-12.2 5.49-5.8 4-5.8-17.7 4.27-20.75 8.24a15.73 15.73 0 0 0-3.39 7.32c-.3.92 3.66-21.36 8.85-25.93s16.17-8.24 22.58-5.8 9.15 4.27 10.07 6.1a56 56 0 0 0 3.97 5.8Z" style="fill:#5eead4;stroke:#263238;stroke-linecap:round;stroke-linejoin:round"/><path d="M44.83 184.14s6.17-7.76 7.36-5.14S44 193.69 43 192.7s-1-4.78 1.83-8.56ZM64.33 153.3s-20.5-3.78-26.86-1.79M63.73 158.27s-16.73 4.18-23.28 9.36M64.13 159.86s9.36 1.2 13.93 4.78 5 4.78 5 4.78" style="fill:none;stroke:#263238;stroke-linecap:round;stroke-linejoin:round"/><path d="M81.84 147.92a25.55 25.55 0 0 0-6.56 2.79 44.63 44.63 0 0 1-9 3.58s-7.28 11.94-8.91 22.49-.2 28.66 0 29.45" style="fill:none;stroke:#263238;stroke-linecap:round;stroke-linejoin:round"/><path d="M59.76 169.22a114.16 114.16 0 0 1 7.36 14.72" style="fill:none;stroke:#263238;stroke-linecap:round;stroke-linejoin:round"/><path d="M121.25 82.65a39.86 39.86 0 0 0 1.39-8.76c0-3.78-4-9 2.59-11.34s19.1-8.36 21.49-11.54 2.59-5.77 8.16-6.57 10.35-.59 17.51 3.78 9 9.56 9 9.56-2.79-2-18.71 1-24.28 12.74-20.1 13.13 26.63-9.76 32.2-10.91 8.76-1.79 12.14 1.79 4.38 11.54 4.38 11.54-9.36-6.37-20.3-5.37-28.06 9.75-25.67 10.75 16.91-5.78 27.26-4.18 16.72 2.58 17.51 6.56-2.78 6.57-2.78 6.57 2.19-3.78-5.77-8-20.9-3.18-20.9-2.19 7.36.2 12.54 2.79 11.94 6.37 9.75 7.76-7.17 4.58-8.16 7.36-.8 9-1.59 7-1.79-8-3.58-9.16-21.5-.39-21.5-.39-8.11-4.21-9.11-6.2-1.39-5.38-6-4.38-4.38 3-1.79 7.36 9.35 9.35 9.35 9.35-10.94-6-15.92-6.56-7.76-2.59-6.77-4.78 2.79-4.18-.2-4.58-7.36-.39-7.76 2 3.59 5 3.59 5-16.12-4.38-19.9-7.56-7-5.38-5.78-7 7.37-.2 7.37-.2 5.77-4.77 12.53-2 9.16 6.57 10.35 7.56a4.93 4.93 0 0 0 3.18.81Z" style="fill:#5eead4;stroke:#263238;stroke-linecap:round;stroke-linejoin:round"/><path d="M149.31 56.38c-.6-.2-8.76 8.16-12.94 14.93s-15.12 11.34-15.12 11.34 15.12-1.19 20.49-1 19.11 3 24.08 6.56M118.06 81.85s-16-3.48-17.72-1" style="fill:none;stroke:#263238;stroke-linecap:round;stroke-linejoin:round"/><path d="M129.05 82.18s10.69-3.81 15.57-6.41 20.62-10.54 32.84-10.38" style="fill:none;stroke:#263238;stroke-linecap:round;stroke-linejoin:round"/><path d="M146.35 155s-7.15-9.61-5.14-10.95 22.12 3.8 27.25 5.36 14.52 1.79 25 3.58 11.84 4.91 14.74 5.13 4.92 0 6.71.9l1.78.89a37.15 37.15 0 0 0-6.25 2.23c-2 1.12-8.49 1.34-9.16 2.24s-10.28 5.14-21.67 8-27.25-8.71-31.72-11.39-8.26-4.92-8.71-7.15 7.17 1.16 7.17 1.16Z" style="fill:#5eead4;stroke:#263238;stroke-linecap:round;stroke-linejoin:round"/><path d="M146.35 155s4.47 4.69 6.7 5.13 15.86 4 26.36 4 27.92-2.9 27.92-2.9" style="fill:none;stroke:#263238;stroke-linecap:round;stroke-linejoin:round"/><path d="M157.29 150.48s-2.68 4.91-4.46 6.48l-1.83 1.56M157.07 161.2s9.16-5.36 13.85-6.48a38.63 38.63 0 0 1 8-1.11M170.92 164.1a51.17 51.17 0 0 1 13.85-4.46c8.49-1.57 10.5-2 10.5-2M158.86 161.65s4.91 4.91 10.72 6.48" style="fill:none;stroke:#263238;stroke-linecap:round;stroke-linejoin:round"/><path d="M89.09 126.89s-9.21-6.65-5.88-8.44 24.31 3.07 45 6.4 26.62 7.93 30.2 11.51 4.09 9 4.09 9-6.91.76-8.19 1.53-2.81-5.12-14.33-11-19.19-9.72-14.07-3.58 11.51 12.79 16.12 14.07l4.61 1.28s-12 4.35-14.59 3.07-18.93-23-21-22.77-2.3 1.79 1.28 6.14 11 10.23 11 10.23-16.12.51-16.89-.76S96 125.87 95.23 129.2s0 4.35 1.54 6.39 4.86 5.89 4.86 5.89-29.94 4.6-30.45 1.79 1.82-8.7 7.17-11.27Z" style="fill:#5eead4;stroke:#263238;stroke-linecap:round;stroke-linejoin:round"/><path d="M89.09 126.89s16.64-3.07 25.85-1.79" style="fill:none;stroke:#263238;stroke-linecap:round;stroke-linejoin:round"/><path d="M133 270.39c0-.07 2.52-7.59 7.39-24.62a215.85 215.85 0 0 0 6.61-34.41l-2.54-.24a212.29 212.29 0 0 1-6.46 33.94c-4.84 17-7.33 24.45-7.35 24.52Z" style="fill:#263238"/><path d="M121.33 206s3.84-10.49 11.52-10.23 9.72 12.49 5.15 23.23-15.61 17.15-21.24 20.47-18.17 11.26-20.22 13.05-3.07-6.39-5.88-13.05-4.66-27.37 1.5-37.35 18.68-17.65 23.8-13.56 5.37 17.44 5.37 17.44Z" style="fill:#5eead4;stroke:#263238;stroke-linecap:round;stroke-linejoin:round"/><path d="M119.8 209s1 2.82-4.86 10-15.36 14.6-16.38 22.53M117.5 208.26S99.07 205.45 94 208M120.31 212.1s6.91 6.14 7.93 12.29M113.4 221.57s2.3 6.14 1.79 10.49" style="fill:none;stroke:#263238;stroke-linecap:round;stroke-linejoin:round"/><path d="M107 226.69s-9.72.77-11.51 5.12" style="fill:none;stroke:#263238;stroke-linecap:round;stroke-linejoin:round"/><path d="M147.69 207s-6.65-3.32-3.07-7.67 10-2.56 16.12-.51 5.63 4.09 22.52 4.35 22.74 3.3 22.74 3.3-8.7 0-14.07 4.1-33 8.7-39.92 9.72-16.38-2.81-17.4-8.44 13.08-4.85 13.08-4.85Z" style="fill:#5eead4;stroke:#263238;stroke-linecap:round;stroke-linejoin:round"/><path d="M194 206.73s-2.31 1-16.64 2.3a108.9 108.9 0 0 1-26.61-1 81.25 81.25 0 0 1 12.12-4.14" style="fill:none;stroke:#263238;stroke-linecap:round;stroke-linejoin:round"/><path d="M173.6 206.1s-8 1.79-11.61 3.57c0 0 7.14 2.69 14.07 2M150.76 208s3.18 5.91 6.09 7" style="fill:none;stroke:#263238;stroke-linecap:round;stroke-linejoin:round"/><path d="M170 265.9H95.24s-9.15 25.63-5.49 42.72c.29 1.38.64 2.76 1 4.13a42.19 42.19 0 0 0 40.6 30.34h2.12c22.19 0 41-17.1 42.22-39.26q0-.81.06-1.62c.34-21.66-5.75-36.31-5.75-36.31Z" style="fill:#263238;stroke:#263238;stroke-linecap:round;stroke-linejoin:round"/><ellipse cx="132.56" cy="267.11" rx="37.43" ry="8.64" style="fill:#263238;stroke:#263238;stroke-linecap:round;stroke-linejoin:round"/><path d="M437.87 417.64s-3.55-4.29-10.45-11-.93-7.09 9.89-10.26 22.75-10.63 13.61-23.13-28.16-10.81-30.21-9.51" style="fill:none;stroke:#263238;stroke-linecap:round;stroke-linejoin:round;stroke-width:2px"/><path d="M433.76 419.32s.38-3.73 4.11-3.54 3.91 4.85 3.91 4.85Z" style="fill:#fff;stroke:#263238;stroke-linecap:round;stroke-linejoin:round"/><path d="M428.91 418a31.83 31.83 0 0 0-25.83 13.53c-.22.33-.44.66-.65 1-5 8-6 13.42-1.31 21.82s20.89 8.95 32.08 6.71 18.65-20.51 20.71-24.25 4.1-8.76 1.3-12.49-10.44-6.32-22.57-6.32Z" style="fill:#fff;stroke:#263238;stroke-linecap:round;stroke-linejoin:round"/><path d="M453.91 436.85c1.45-2.64 2.9-5.94 2.62-9a27.54 27.54 0 0 0-7.29 6c-5.59 6.16-10.63 22.2-27.23 23.87-16.06 1.63-22.69-7.75-23.1-8.36a27.78 27.78 0 0 0 2.21 5c4.67 8.39 20.89 8.95 32.08 6.71s18.65-20.49 20.71-24.22Z" style="fill:#fff;stroke:#263238;stroke-linecap:round;stroke-linejoin:round"/><path d="m383.72 414.07 62.85-79.78v-8.11l-63.54 73.05.69 14.84z" style="fill:#dbdbdb;stroke:#263238;stroke-linecap:round;stroke-linejoin:round"/><path d="m165.26 367.69.41 11.95 218.05 34.43.23-13.22-218.69-33.16z" style="fill:#263238;stroke:#263238;stroke-linecap:round;stroke-linejoin:round"/><path d="m256.05 271.41-96.79 54.03 226.39 27.51 64.63-64.63-194.23-16.91z" style="fill:#fff;stroke:#263238;stroke-linecap:round;stroke-linejoin:round"/><path d="M263.34 282.68s-34.47 30.83-34.14 33.15 2.32 6 7.62 7.95 77.23 10 82.87 10.28 38.45-5.64 49.05-12.93 10.61-5 7-12.59-23.53-16.25-23.53-16.25Z" style="fill:#dbdbdb;stroke:#263238;stroke-linecap:round;stroke-linejoin:round"/><path d="M255.05 280s7 19.23 35.47 22.21 41.43-7 41.43-7Z" style="fill:#263238;stroke:#263238;stroke-linecap:round;stroke-linejoin:round"/><path d="M420.45 244.9s-3.65 39.44-4.64 41.1-4.31 2.65-7 3.31-50.71 10.94-50.71 10.94l.33-9.61Z" style="fill:#b8b8b8;stroke:#263238;stroke-linecap:round;stroke-linejoin:round"/><path d="M358.14 300.25S216.6 283 199.37 281.36l-.33-8 159.43 17.24Z" style="fill:#263238;stroke:#263238;stroke-linecap:round;stroke-linejoin:round"/><path d="m182.46 69.89-16.57 200.86s46.07 7.95 96.46 14.58S387 293 387 293l22.18-228.42s-89.49-4.3-128.6-3-98.12 8.31-98.12 8.31Z" style="fill:#e8e8e8;stroke:#263238;stroke-linecap:round;stroke-linejoin:round"/><path d="M198.71 92.43s-13.59 112.36-13.26 144.51l180.31 13.92S375 109.33 377.69 90.77l-97.78-1.33Z" style="fill:#5eead4;stroke:#263238;stroke-linecap:round;stroke-linejoin:round"/><path d="M198.71 92.43s-13.59 112.36-13.26 144.51l4.22.33c-.07-5.13 0-17.64 1.41-43.42 2-36.46 10.94-97.78 10.94-97.78s37.12-2.65 76.9-3.64c37.32-.94 91.86.76 98.44 1 .12-1 .23-1.93.33-2.63l-97.78-1.33Z" style="fill:#263238;stroke:#263238;stroke-linecap:round;stroke-linejoin:round"/><ellipse cx="320.52" cy="278.87" rx="13.76" ry="14.42" style="fill:#e8e8e8;stroke:#263238;stroke-linecap:round;stroke-linejoin:round"/><circle cx="325.65" cy="283.01" r="3.65" style="fill:#e8e8e8;stroke:#263238;stroke-linecap:round;stroke-linejoin:round"/><path d="M355.15 280.69a3.32 3.32 0 1 1-3.31-3.31 3.32 3.32 0 0 1 3.31 3.31ZM367.42 282.35a3.32 3.32 0 1 1-3.32-3.35 3.32 3.32 0 0 1 3.32 3.35Z" style="fill:#e8e8e8;stroke:#263238;stroke-linecap:round;stroke-linejoin:round"/><path d="m409.18 64.58 9.61 24.2-23.53 204.18h-8.29l22.21-228.38z" style="fill:#fff;stroke:#263238;stroke-linecap:round;stroke-linejoin:round"/><path d="m414.48 127.23 25.19 24.53-7.62 88.5a155.42 155.42 0 0 0-20.22 19.22c-10.94 12.26-14.91 16.9-14.91 16.9ZM385.65 352.95l-.82 48.21 64.79-76.05.66-36.79-64.63 64.63z" style="fill:#fff;stroke:#263238;stroke-linecap:round;stroke-linejoin:round"/><path d="m384.83 401.16-224.24-33.62-1.33-42.1 226.39 27.51-.82 48.21z" style="fill:#e8e8e8;stroke:#263238;stroke-linecap:round;stroke-linejoin:round"/><path d="m176.28 344.38.2 7.18 7.18 1.19.19-6.97-7.57-1.4z" style="fill:#5eead4;stroke:#263238;stroke-linecap:round;stroke-linejoin:round"/><path d="m281.13 357.63-48.53-6.48-.31-2.87 49.23 6.38-.39 2.97zM371.43 369.19l-21.14-2.77.2-2.62-15.5-2.29-3.18 2.62-39.91-5.1.38-2.98 38.62 4.94 3.21-2.64 18.36 3.15-.2 2.57 19.55 2.15-.39 2.97z" style="fill:#263238;stroke:#263238;stroke-linecap:round;stroke-linejoin:round"/><path d="m314.82 356.84 10.88.93s-1.23 2.65-1.53 2.65-10.39-.41-10.39-.41Z" style="fill:#fff;stroke:#263238;stroke-linecap:round;stroke-linejoin:round"/><path d="m325.69 357.77 3.77-1.83-.81 2.14-4.48 2.34 1.52-2.65z" style="fill:#fff;stroke:#263238;stroke-linecap:round;stroke-linejoin:round"/><path d="m329.46 355.94-13.24-1.63a6.42 6.42 0 0 0-2.24-2.75c-1.43-.82-3.46-1-5.3 2.24l-.61 1.63 6.75 1.41 10.88.93Z" style="fill:#fff;stroke:#263238;stroke-linecap:round;stroke-linejoin:round"/><path d="M314.82 356.84c0 2.26-1.52 4.09-3.39 4.09s-3.43-1.83-3.43-4.09 1.52-4.09 3.39-4.09 3.43 1.83 3.43 4.09Z" style="fill:#fff;stroke:#263238;stroke-linecap:round;stroke-linejoin:round"/><path d="M331.65 365.52v9.59l2.76-11.76M331.65 375.11l20.77 3.05.14-10.31M352.56 360.88l.15-4.65M330.9 360.99l.02-7.08" style="fill:none;stroke:#263238;stroke-linecap:round;stroke-linejoin:round"/><path d="m286.05 347.81.72 25.12" style="fill:#fff;stroke:#263238;stroke-linecap:round;stroke-linejoin:round"/><path d="m302.6 371.62 27.31 3.49M302.17 362.04l-.15 8.28M229.55 346.5l.73 12.2 53.88 7.84-.15-12.92-54.46-7.12z" style="fill:none;stroke:#263238;stroke-linecap:round;stroke-linejoin:round"/><path d="m268.69 361.29 6.16.92v3.68l-6.16-.74v-3.86zM274.85 362.21l1.74-1.47v3.4l-1.74 1.75v-3.68z" style="fill:#fff;stroke:#263238;stroke-linecap:round;stroke-linejoin:round"/><path d="m276.59 360.74-6.15-.82-1.75 1.37 6.16.92 1.74-1.47z" style="fill:#fff;stroke:#263238;stroke-linecap:round;stroke-linejoin:round"/><path d="m227.64 375.11-2.08-35.95 150.74 19.72-.46 37.1" style="fill:none;stroke:#263238;stroke-linecap:round;stroke-linejoin:round"/><path d="m374.45 384.85-146.57-20.41M223.47 363.75l-61.69-9.05M145.97 373l251.38 37.47-33.73 55.27-278.85-50.9 61.2-41.84z" style="fill:#fff;stroke:#263238;stroke-linecap:round;stroke-linejoin:round"/><path d="m363.62 465.74.7 9.61 34.22-57.7-1.19-7.18-33.73 55.27z" style="fill:#fff;stroke:#263238;stroke-linecap:round;stroke-linejoin:round"/><path d="m363.62 465.74-278.85-50.9.32 7.94 279.23 52.57-.7-9.61z" style="fill:#e8e8e8;stroke:#263238;stroke-linecap:round;stroke-linejoin:round"/><path d="m335.59 413.9-26.2 32.4v3.8l50.8 9.8 20.8-34.6-1.2-4.4-44.2-7z" style="fill:#dbdbdb;stroke:#263238;stroke-linecap:round;stroke-linejoin:round"/><path d="m309.39 446.3 50.2 8.4 20.2-33.8-44.2-7-26.2 32.4zM293.39 407.9l-10.8 12.2-1.72 3.73 36.12 5.67 8.8-12.8-.6-3.6-31.8-5.2zM301.99 399.5l-4.6 4-1.8 3.6 33.02 5.46 4.78-4.46-1.4-3.6-30-5zM293.19 402.3l-5 4.6-43.4-7.6 1.8-3.6 4-3.8 39.4 5.8 3.2 4.6zM243.79 393.9l-5 5.8-41-6.8 1.6-5.4 5.2-2.8 37.2 5.6 2 3.6zM196.99 386.3l-7 5.8-37.6-7 1.6-5.2 4.6-3 36.6 6 1.8 3.4zM282.59 407.1l-154.6-24.8-27.6 19.6-.4 1.8-6 4.2-1.2 4.6 14.78 2.71 7.82-4.51 6 .8-3.2 6 109.4 19.6 6.4-5.8 9.2 1.2-4 6.8 19.4 3.8 27.59-31.48-3.59-4.52z" style="fill:#dbdbdb;stroke:#263238;stroke-linecap:round;stroke-linejoin:round"/><path d="m278.5 413.32-158.19-25.53-5.92 4.05 137.01 22.42-6.69 6.38 23.67 3.58 10.12-10.9z" style="fill:#fff;stroke:#263238;stroke-linecap:round;stroke-linejoin:round"/><path d="m246.42 415.35-4.83 4.67-113.65-19.31 4.98-3.73 113.5 18.37zM130.58 403.36l-5.45 3.27 105.41 17.75 4.67-3.27-104.63-17.75zM218.09 425l-4.68 3.58 13.24 2.65 4.2-3.89-12.76-2.34zM238.95 421.26l-4.98 3.9 16.81 2.33 4.21-3.74-17.29-2.33M258.72 424.69l-4.36 3.89 7.63.94 3.89-3.58-7.16-1.25zM260.75 432.63l-13.55-2.65-4.05 3.58 13.7 2.65 3.9-3.58zM213.26 424.69l-4.36 3.74-72.24-13.39 4.82-2.96 71.78 12.61zM137.12 411.45l-5.6 2.65-10.28-1.55 4.98-3.28 10.9 2.18zM126.38 402.42l-4.98 2.96-21.01-3.48 5.59-3.21 20.4 3.73zM108.16 396.51 124.2 399l5.14-2.8-16.82-2.96-4.36 3.27zM97.73 405.38l14.01 2.03-5.6 2.33-12.15-1.84 3.74-2.52zM122.8 385.76l132.96 21.96 3.74-4.05-131.51-21.37-5.19 3.46zM262.61 403.98l-3.73 4.05 20.39 3.11 3.32-4.04-19.98-3.12zM153.99 379.9l36.23 6.18 4.97-3.18-36.6-6-4.6 3zM199.39 387.5l37.69 6.36 4.71-3.56-37.2-5.6-5.2 2.8zM246.59 395.7l40.31 6.26 3.09-4.26-39.4-5.8-4 3.8zM321.64 417.38l3.55-4.28-31.8-5.2-4 4.52 32.25 4.96zM287.27 414.82l-4.68 5.28 32.63 5.04 4.23-5.11-32.18-5.21zM297.39 403.5l29.6 4.73 5-3.73-30-5-4.6 4zM376.51 426.36l-44.92-7.44 4-5.02 44.2 7-3.28 5.46zM374.75 428.39l-44.24-7.45-4.33 4.88 36.93 5.95-4.33 6.09 9.34 1.76 6.63-11.23z" style="fill:#fff;stroke:#263238;stroke-linecap:round;stroke-linejoin:round"/><path d="m324.15 427.98 33.55 5.41-3.79 5.14-33.15-6.09 3.39-4.46zM318.87 434.88l33.69 5.55-3.11 4.06-33.56-5.96 2.98-3.65zM357.02 440.43l-8.25 12.04 10.82 2.23 6.91-12.24-9.48-2.03zM347.96 446.92l-4.33 5.14-34.24-5.76 4.74-4.79 33.83 5.41z" style="fill:#fff;stroke:#263238;stroke-linecap:round;stroke-linejoin:round"/></svg>